<svg xmlns="http://www.w3.org/2000/svg" viewBox="0 0 3100 125" width="3100px" height="125px">
<svg
    viewBox="0 0 100 125"
    width="100px"
    height="125px"
    x="0px"
    y="0px">
    <g>
        <path
            d="M 82.8 28.3 Q 74.15 14.5 54 11.7 L 45.25 11.7 L 45.25 11.8 Q 27.3 14.25 18.3 28.15 Q 11.65 38.45 11.65 50.15 Q 11.65 62.75 18.1 72.25 Q 29.2 88.35 56.25 88.35 Q 65.55 88.35 73.1 85 Q 78.4 82.6 80 80.3 Q 85.2 73.2 87.2 62.7 Q 88.4 56.55 88.4 49.7 Q 88.4 37.4 82.8 28.3 M 54.55 16 Q 72.05 18.3 79.7 30.6 Q 84.75 38.8 84.75 49.85 Q 84.75 62.1 80.45 70.8 Q 73.7 84.55 57.9 83.5 L 46.7 83.5 Q 27.45 79.65 20.25 69.45 Q 15.3 62.5 15.3 50.3 Q 15.3 40.15 21.1 31 Q 28.95 18.55 44.7 16 L 54.55 16 M 32.8 34.6 Q 34.862 34.6 36.925 34.6 Q 38.987 34.6 41.05 34.6 Q 41.75 34.5 42.1 33.95 Q 42.4 33.55 42.4 33.15 Q 42.4 32.85 42.1 32.45 Q 41.75 31.9 41.05 31.85 Q 40.225 31.85 39.4 31.85 L 37.75 31.85 Q 36.925 31.85 36.1 31.85 Q 35.688 31.85 35.275 31.85 Q 34.862 31.85 34.45 31.85 Q 33.625 31.85 32.8 31.85 Q 27.7 31.65 27.7 33.25 Q 27.7 33.8 28.2 34.1 Q 29.35 34.8 32.8 34.6 M 77.4 41.9 Q 78.05 43.5 78.3 43.5 Q 79.2 43.5 79.65 40.55 Q 79.65 39.05 77.85 37.35 Q 76.05 35.65 76.05 37.8 Q 76.25 38.45 76.45 39 Q 56.125 39 35.8 39 Q 27.1 39.05 23.85 39.25 Q 24.05 38.75 24.05 38.45 Q 24.05 36.05 22.2 37.7 Q 20.3 39.35 20.3 42.85 Q 20.3 43.6 21.05 44.25 Q 21.4 44 22.65 41.65 Q 22.7 41.6 22.7 41.55 Q 26.05 42.05 35.8 42 Q 56.175 42 76.55 42 Q 77.05 41.95 77.4 41.9 M 70.525 31.962 Q 69.463 31.85 68 31.8 Q 67.513 31.783 66.981 31.774 Q 66.449 31.764 65.872 31.761 Q 65.296 31.758 64.675 31.762 Q 64.054 31.767 63.389 31.778 Q 62.724 31.789 62.014 31.807 Q 61.304 31.825 60.55 31.85 Q 58.9 31.7 58.1 32.3 Q 57.825 32.5 57.688 32.737 Q 57.55 32.975 57.55 33.25 Q 57.55 33.9 57.95 34.1 Q 59.1 34.65 63.15 34.65 Q 71.25 34.65 72.55 34.4 Q 72.55 34.4 72.55 34.4 Q 73.3 34.3 73.3 33.25 Q 73.3 32.5 72.25 32.25 Q 71.588 32.075 70.525 31.962"
            fill="#000000"
            stroke-width="1"/>
    </g>
</svg>

<svg
    viewBox="0 0 100 125"
    width="100px"
    height="125px"
    x="100px"
    y="0px">
    <g>
        <path
            d="M 82.8 28.3 Q 74.15 14.5 54 11.7 L 45.25 11.7 L 45.25 11.8 Q 27.3 14.25 18.3 28.15 Q 11.65 38.45 11.65 50.15 Q 11.65 62.75 18.1 72.25 Q 29.2 88.35 56.25 88.35 Q 65.55 88.35 73.1 85 Q 78.4 82.6 80 80.3 Q 85.2 73.2 87.2 62.7 Q 88.4 56.55 88.4 49.7 Q 88.4 37.4 82.8 28.3 M 54.55 16 Q 72.05 18.3 79.7 30.6 Q 84.75 38.8 84.75 49.85 Q 84.75 62.1 80.45 70.8 Q 73.7 84.55 57.9 83.5 L 46.7 83.5 Q 27.45 79.65 20.25 69.45 Q 15.3 62.5 15.3 50.3 Q 15.3 40.15 21.1 31 Q 28.95 18.55 44.7 16 L 54.55 16 M 32.801 34.592 Q 34.859 34.606 36.934 34.606 Q 38.992 34.606 41.049 34.602 Q 41.748 34.501 42.099 33.951 Q 42.4 33.551 42.403 33.15 Q 42.409 32.842 42.111 32.436 Q 41.763 31.873 41.057 31.834 Q 40.223 31.852 39.397 31.855 L 37.747 31.855 Q 36.919 31.853 36.093 31.842 Q 35.679 31.832 35.265 31.832 Q 34.849 31.832 34.438 31.838 Q 33.617 31.842 32.798 31.845 Q 27.731 31.647 27.731 33.238 Q 27.732 33.786 28.229 34.087 Q 29.373 34.786 32.801 34.592 M 77.277 41.914 Q 77.923 43.5 78.171 43.496 Q 79.064 43.492 79.509 40.557 Q 79.507 39.063 77.716 37.371 Q 75.925 35.679 75.921 37.812 Q 76.106 38.446 76.287 38.991 Q 56.074 38.989 35.869 38.998 Q 27.218 39.053 23.985 39.26 Q 24.18 38.772 24.18 38.485 Q 24.18 36.101 22.342 37.741 Q 20.455 39.381 20.455 42.859 Q 20.455 43.606 21.2 44.253 Q 21.548 44.007 22.791 41.674 Q 22.841 41.627 22.841 41.58 Q 26.17 42.079 35.857 42.033 Q 56.11 42.051 76.387 42.051 Q 76.93 42.001 77.277 41.914 M 70.509 31.95 Q 69.453 31.833 67.997 31.779 Q 67.507 31.757 66.97 31.759 Q 66.441 31.75 65.865 31.756 Q 65.289 31.759 64.667 31.767 Q 64.046 31.771 63.381 31.782 Q 62.72 31.793 62.014 31.811 Q 61.305 31.828 60.544 31.843 Q 58.895 31.684 58.097 32.28 Q 57.817 32.479 57.68 32.723 Q 57.543 32.966 57.552 33.249 Q 57.564 33.909 57.982 34.107 Q 59.128 34.654 63.155 34.653 Q 71.205 34.653 72.499 34.403 Q 72.502 34.402 72.505 34.4 Q 73.252 34.299 73.255 33.254 Q 73.257 32.506 72.216 32.255 Q 71.564 32.07 70.509 31.95"
            fill="#000000"
            stroke-width="1"/>
    </g>
</svg>

<svg
    viewBox="0 0 100 125"
    width="100px"
    height="125px"
    x="200px"
    y="0px">
    <g>
        <path
            d="M 82.8 28.3 Q 74.15 14.5 54 11.7 L 45.25 11.7 L 45.25 11.8 Q 27.3 14.25 18.3 28.15 Q 11.65 38.45 11.65 50.15 Q 11.65 62.75 18.1 72.25 Q 29.2 88.35 56.25 88.35 Q 65.55 88.35 73.1 85 Q 78.4 82.6 80 80.3 Q 85.2 73.2 87.2 62.7 Q 88.4 56.55 88.4 49.7 Q 88.4 37.4 82.8 28.3 M 54.55 16 Q 72.05 18.3 79.7 30.6 Q 84.75 38.8 84.75 49.85 Q 84.75 62.1 80.45 70.8 Q 73.7 84.55 57.9 83.5 L 46.7 83.5 Q 27.45 79.65 20.25 69.45 Q 15.3 62.5 15.3 50.3 Q 15.3 40.15 21.1 31 Q 28.95 18.55 44.7 16 L 54.55 16 M 32.806 34.563 Q 34.847 34.626 36.965 34.626 Q 39.01 34.626 41.045 34.609 Q 41.741 34.503 42.095 33.957 Q 42.4 33.556 42.412 33.15 Q 42.441 32.813 42.15 32.388 Q 41.81 31.777 41.079 31.78 Q 40.214 31.857 39.388 31.873 L 37.737 31.873 Q 36.898 31.862 36.071 31.813 Q 35.648 31.769 35.229 31.769 Q 34.803 31.769 34.394 31.797 Q 33.589 31.812 32.79 31.828 Q 27.84 31.634 27.841 33.195 Q 27.843 33.736 28.332 34.042 Q 29.452 34.736 32.806 34.563 M 76.846 41.965 Q 77.477 43.499 77.716 43.481 Q 78.585 43.463 79.013 40.583 Q 79.005 39.111 77.245 37.445 Q 75.485 35.78 75.468 37.853 Q 75.601 38.432 75.713 38.957 Q 55.895 38.949 36.11 38.991 Q 27.632 39.065 24.46 39.297 Q 24.637 38.849 24.637 38.609 Q 24.637 36.28 22.842 37.885 Q 20.998 39.49 20.999 42.892 Q 21 43.626 21.73 44.264 Q 22.071 44.029 23.286 41.758 Q 23.336 41.72 23.338 41.683 Q 26.592 42.181 36.058 42.147 Q 55.881 42.231 75.813 42.231 Q 76.507 42.182 76.846 41.965 M 70.452 31.908 Q 69.421 31.772 67.985 31.706 Q 67.489 31.666 66.934 31.707 Q 66.415 31.702 65.839 31.736 Q 65.267 31.762 64.64 31.783 Q 64.017 31.787 63.351 31.798 Q 62.705 31.808 62.016 31.826 Q 61.307 31.837 60.525 31.816 Q 58.878 31.63 58.088 32.212 Q 57.788 32.406 57.654 32.672 Q 57.521 32.933 57.557 33.244 Q 57.612 33.94 58.094 34.134 Q 59.225 34.668 63.171 34.665 Q 71.047 34.662 72.321 34.414 Q 72.334 34.409 72.346 34.401 Q 73.085 34.296 73.096 33.266 Q 73.106 32.528 72.096 32.272 Q 71.484 32.054 70.452 31.908"
            fill="#000000"
            stroke-width="1"/>
    </g>
</svg>

<svg
    viewBox="0 0 100 125"
    width="100px"
    height="125px"
    x="300px"
    y="0px">
    <g>
        <path
            d="M 82.8 28.3 Q 74.15 14.5 54 11.7 L 45.25 11.7 L 45.25 11.8 Q 27.3 14.25 18.3 28.15 Q 11.65 38.45 11.65 50.15 Q 11.65 62.75 18.1 72.25 Q 29.2 88.35 56.25 88.35 Q 65.55 88.35 73.1 85 Q 78.4 82.6 80 80.3 Q 85.2 73.2 87.2 62.7 Q 88.4 56.55 88.4 49.7 Q 88.4 37.4 82.8 28.3 M 54.55 16 Q 72.05 18.3 79.7 30.6 Q 84.75 38.8 84.75 49.85 Q 84.75 62.1 80.45 70.8 Q 73.7 84.55 57.9 83.5 L 46.7 83.5 Q 27.45 79.65 20.25 69.45 Q 15.3 62.5 15.3 50.3 Q 15.3 40.15 21.1 31 Q 28.95 18.55 44.7 16 L 54.55 16 M 32.815 34.506 Q 34.824 34.668 37.029 34.668 Q 39.045 34.668 41.037 34.624 Q 41.726 34.509 42.086 33.967 Q 42.4 33.564 42.43 33.15 Q 42.506 32.756 42.228 32.291 Q 41.905 31.583 41.126 31.669 Q 40.197 31.869 39.37 31.91 L 37.716 31.91 Q 36.855 31.88 36.024 31.756 Q 35.586 31.642 35.156 31.642 Q 34.71 31.642 34.306 31.714 Q 33.532 31.752 32.774 31.793 Q 28.059 31.61 28.064 33.108 Q 28.068 33.636 28.54 33.951 Q 29.612 34.635 32.815 34.506 M 75.975 42.066 Q 76.576 43.496 76.796 43.45 Q 77.617 43.405 78.012 40.635 Q 77.99 39.206 76.293 37.595 Q 74.597 35.984 74.553 37.936 Q 74.58 38.405 74.553 38.89 Q 55.534 38.868 36.597 38.977 Q 28.468 39.088 25.42 39.37 Q 25.562 39.005 25.562 38.858 Q 25.562 36.642 23.853 38.176 Q 22.098 39.709 22.1 42.959 Q 22.102 43.666 22.799 44.287 Q 23.126 44.076 24.286 41.929 Q 24.337 41.908 24.343 41.893 Q 27.445 42.387 36.465 42.378 Q 55.417 42.593 74.653 42.593 Q 75.652 42.547 75.975 42.066 M 70.338 31.822 Q 69.356 31.65 67.962 31.558 Q 67.451 31.482 66.861 31.602 Q 66.362 31.604 65.787 31.696 Q 65.221 31.769 64.586 31.814 Q 63.959 31.818 63.291 31.829 Q 62.676 31.839 62.02 31.856 Q 61.311 31.857 60.486 31.763 Q 58.843 31.519 58.07 32.073 Q 57.729 32.258 57.602 32.568 Q 57.474 32.867 57.569 33.235 Q 57.709 34.002 58.32 34.187 Q 59.423 34.695 63.203 34.689 Q 70.727 34.682 71.961 34.437 Q 71.994 34.423 72.024 34.403 Q 72.747 34.29 72.774 33.292 Q 72.8 32.572 71.853 32.307 Q 71.32 32.02 70.338 31.822"
            fill="#000000"
            stroke-width="1"/>
    </g>
</svg>

<svg
    viewBox="0 0 100 125"
    width="100px"
    height="125px"
    x="400px"
    y="0px">
    <g>
        <path
            d="M 82.8 28.3 Q 74.15 14.5 54 11.7 L 45.25 11.7 L 45.25 11.8 Q 27.3 14.25 18.3 28.15 Q 11.65 38.45 11.65 50.15 Q 11.65 62.75 18.1 72.25 Q 29.2 88.35 56.25 88.35 Q 65.55 88.35 73.1 85 Q 78.4 82.6 80 80.3 Q 85.2 73.2 87.2 62.7 Q 88.4 56.55 88.4 49.7 Q 88.4 37.4 82.8 28.3 M 54.55 16 Q 72.05 18.3 79.7 30.6 Q 84.75 38.8 84.75 49.85 Q 84.75 62.1 80.45 70.8 Q 73.7 84.55 57.9 83.5 L 46.7 83.5 Q 27.45 79.65 20.25 69.45 Q 15.3 62.5 15.3 50.3 Q 15.3 40.15 21.1 31 Q 28.95 18.55 44.7 16 L 54.55 16 M 32.831 34.407 Q 34.783 34.739 37.138 34.739 Q 39.105 34.739 41.023 34.648 Q 41.702 34.518 42.072 33.985 Q 42.4 33.579 42.462 33.15 Q 42.617 32.657 42.363 32.125 Q 42.067 31.25 41.205 31.479 Q 40.167 31.889 39.338 31.974 L 37.68 31.974 Q 36.782 31.912 35.945 31.657 Q 35.481 31.425 35.031 31.425 Q 34.551 31.425 34.156 31.572 Q 33.436 31.649 32.746 31.734 Q 28.435 31.568 28.444 32.96 Q 28.453 33.464 28.895 33.794 Q 29.886 34.462 32.831 34.407 M 74.485 42.24 Q 75.034 43.492 75.224 43.399 Q 75.962 43.305 76.298 40.724 Q 76.254 39.369 74.665 37.852 Q 73.077 36.334 72.988 38.078 Q 72.832 38.357 72.568 38.776 Q 54.915 38.729 37.431 38.954 Q 29.899 39.127 27.063 39.495 Q 27.143 39.272 27.143 39.285 Q 27.143 37.261 25.581 38.673 Q 23.978 40.085 23.982 43.073 Q 23.987 43.735 24.628 44.325 Q 24.931 44.155 25.997 42.22 Q 26.049 42.231 26.061 42.253 Q 28.904 42.739 37.161 42.773 Q 54.625 43.214 72.668 43.214 Q 74.189 43.172 74.485 42.24 M 70.142 31.674 Q 69.244 31.44 67.923 31.305 Q 67.387 31.167 66.736 31.422 Q 66.271 31.437 65.699 31.628 Q 65.142 31.78 64.493 31.869 Q 63.86 31.872 63.19 31.882 Q 62.627 31.891 62.027 31.906 Q 61.319 31.891 60.419 31.672 Q 58.784 31.329 58.038 31.836 Q 57.628 32.005 57.512 32.391 Q 57.395 32.755 57.589 33.219 Q 57.875 34.109 58.708 34.278 Q 59.76 34.743 63.258 34.729 Q 70.179 34.715 71.346 34.476 Q 71.413 34.448 71.474 34.406 Q 72.169 34.28 72.223 33.337 Q 72.278 32.647 71.438 32.366 Q 71.04 31.963 70.142 31.674"
            fill="#000000"
            stroke-width="1"/>
    </g>
</svg>

<svg
    viewBox="0 0 100 125"
    width="100px"
    height="125px"
    x="500px"
    y="0px">
    <g>
        <path
            d="M 82.8 28.3 Q 74.15 14.5 54 11.7 L 45.25 11.7 L 45.25 11.8 Q 27.3 14.25 18.3 28.15 Q 11.65 38.45 11.65 50.15 Q 11.65 62.75 18.1 72.25 Q 29.2 88.35 56.25 88.35 Q 65.55 88.35 73.1 85 Q 78.4 82.6 80 80.3 Q 85.2 73.2 87.2 62.7 Q 88.4 56.55 88.4 49.7 Q 88.4 37.4 82.8 28.3 M 54.55 16 Q 72.05 18.3 79.7 30.6 Q 84.75 38.8 84.75 49.85 Q 84.75 62.1 80.45 70.8 Q 73.7 84.55 57.9 83.5 L 46.7 83.5 Q 27.45 79.65 20.25 69.45 Q 15.3 62.5 15.3 50.3 Q 15.3 40.15 21.1 31 Q 28.95 18.55 44.7 16 L 54.55 16 M 32.855 34.259 Q 34.723 34.845 37.3 34.845 Q 39.195 34.845 41.002 34.685 Q 41.665 34.532 42.051 34.012 Q 42.4 33.601 42.509 33.15 Q 42.782 32.509 42.563 31.877 Q 42.309 30.755 41.323 31.196 Q 40.123 31.918 39.291 32.068 L 37.627 32.068 Q 36.673 31.959 35.827 31.509 Q 35.323 31.1 34.846 31.1 Q 34.314 31.1 33.932 31.359 Q 33.291 31.496 32.705 31.646 Q 28.995 31.505 29.012 32.738 Q 29.028 33.208 29.425 33.561 Q 30.295 34.205 32.855 34.259 M 72.261 42.5 Q 72.734 43.486 72.876 43.321 Q 73.492 43.156 73.741 40.857 Q 73.662 39.612 72.236 38.234 Q 70.809 36.856 70.652 38.291 Q 70.225 38.286 69.607 38.605 Q 53.992 38.523 38.676 38.918 Q 32.035 39.186 29.514 39.683 Q 29.503 39.67 29.503 39.922 Q 29.503 38.186 28.161 39.416 Q 26.783 40.646 26.792 43.242 Q 26.8 43.839 27.358 44.383 Q 27.625 44.273 28.551 42.656 Q 28.604 42.712 28.625 42.789 Q 31.082 43.265 38.199 43.363 Q 53.442 44.14 69.707 44.14 Q 72.006 44.104 72.261 42.5 M 69.85 31.455 Q 69.077 31.128 67.864 30.928 Q 67.291 30.697 66.55 31.154 Q 66.135 31.188 65.566 31.526 Q 65.024 31.797 64.355 31.95 Q 63.712 31.953 63.037 31.961 Q 62.554 31.969 62.037 31.982 Q 61.33 31.941 60.318 31.536 Q 58.696 31.046 57.991 31.482 Q 57.477 31.628 57.377 32.127 Q 57.277 32.587 57.618 33.195 Q 58.123 34.268 59.286 34.414 Q 60.264 34.814 63.34 34.789 Q 69.362 34.765 70.427 34.534 Q 70.546 34.485 70.653 34.411 Q 71.306 34.265 71.402 33.403 Q 71.498 32.759 70.819 32.454 Q 70.623 31.877 69.85 31.455"
            fill="#000000"
            stroke-width="1"/>
    </g>
</svg>

<svg
    viewBox="0 0 100 125"
    width="100px"
    height="125px"
    x="600px"
    y="0px">
    <g>
        <path
            d="M 82.8 28.3 Q 74.15 14.5 54 11.7 L 45.25 11.7 L 45.25 11.8 Q 27.3 14.25 18.3 28.15 Q 11.65 38.45 11.65 50.15 Q 11.65 62.75 18.1 72.25 Q 29.2 88.35 56.25 88.35 Q 65.55 88.35 73.1 85 Q 78.4 82.6 80 80.3 Q 85.2 73.2 87.2 62.7 Q 88.4 56.55 88.4 49.7 Q 88.4 37.4 82.8 28.3 M 54.55 16 Q 72.05 18.3 79.7 30.6 Q 84.75 38.8 84.75 49.85 Q 84.75 62.1 80.45 70.8 Q 73.7 84.55 57.9 83.5 L 46.7 83.5 Q 27.45 79.65 20.25 69.45 Q 15.3 62.5 15.3 50.3 Q 15.3 40.15 21.1 31 Q 28.95 18.55 44.7 16 L 54.55 16 M 32.883 34.081 Q 34.65 34.973 37.495 34.973 Q 39.304 34.973 40.977 34.73 Q 41.62 34.549 42.025 34.045 Q 42.4 33.628 42.566 33.15 Q 42.981 32.331 42.805 31.579 Q 42.601 30.157 41.465 30.854 Q 40.069 31.954 39.234 32.182 L 37.563 32.182 Q 36.541 32.016 35.685 31.331 Q 35.133 30.709 34.622 30.709 Q 34.028 30.709 33.662 31.103 Q 33.117 31.311 32.655 31.539 Q 29.671 31.429 29.696 32.471 Q 29.721 32.899 30.065 33.279 Q 30.788 33.894 32.883 34.081 M 69.579 42.813 Q 69.96 43.479 70.046 43.228 Q 70.513 42.976 70.657 41.017 Q 70.538 39.906 69.306 38.696 Q 68.074 37.486 67.835 38.547 Q 67.081 38.201 66.036 38.398 Q 52.878 38.274 40.177 38.876 Q 34.61 39.257 32.469 39.909 Q 32.348 40.15 32.348 40.69 Q 32.348 39.3 31.272 40.311 Q 30.166 41.322 30.179 43.447 Q 30.192 43.963 30.65 44.452 Q 30.873 44.415 31.63 43.18 Q 31.685 43.292 31.716 43.435 Q 33.708 43.9 39.451 44.074 Q 52.016 45.257 66.136 45.257 Q 69.375 45.228 69.579 42.813 M 69.498 31.19 Q 68.876 30.751 67.793 30.472 Q 67.175 30.131 66.325 30.83 Q 65.972 30.887 65.407 31.404 Q 64.883 31.817 64.188 32.048 Q 63.534 32.05 62.854 32.057 Q 62.465 32.063 62.05 32.074 Q 61.344 32.001 60.197 31.373 Q 58.589 30.704 57.934 31.055 Q 57.296 31.172 57.216 31.809 Q 57.135 32.384 57.654 33.167 Q 58.421 34.46 59.983 34.577 Q 60.872 34.899 63.44 34.862 Q 68.377 34.824 69.319 34.603 Q 69.5 34.529 69.663 34.417 Q 70.265 34.246 70.412 33.482 Q 70.558 32.894 70.072 32.561 Q 70.12 31.774 69.498 31.19"
            fill="#000000"
            stroke-width="1"/>
    </g>
</svg>

<svg
    viewBox="0 0 100 125"
    width="100px"
    height="125px"
    x="700px"
    y="0px">
    <g>
        <path
            d="M 82.8 28.3 Q 74.15 14.5 54 11.7 L 45.25 11.7 L 45.25 11.8 Q 27.3 14.25 18.3 28.15 Q 11.65 38.45 11.65 50.15 Q 11.65 62.75 18.1 72.25 Q 29.2 88.35 56.25 88.35 Q 65.55 88.35 73.1 85 Q 78.4 82.6 80 80.3 Q 85.2 73.2 87.2 62.7 Q 88.4 56.55 88.4 49.7 Q 88.4 37.4 82.8 28.3 M 54.55 16 Q 72.05 18.3 79.7 30.6 Q 84.75 38.8 84.75 49.85 Q 84.75 62.1 80.45 70.8 Q 73.7 84.55 57.9 83.5 L 46.7 83.5 Q 27.45 79.65 20.25 69.45 Q 15.3 62.5 15.3 50.3 Q 15.3 40.15 21.1 31 Q 28.95 18.55 44.7 16 L 54.55 16 M 32.91 33.914 Q 34.581 35.094 37.68 35.094 Q 39.406 35.094 40.954 34.772 Q 41.578 34.565 42 34.075 Q 42.4 33.653 42.62 33.15 Q 43.169 32.164 43.033 31.297 Q 42.876 29.594 41.599 30.532 Q 40.019 31.987 39.18 32.289 L 37.503 32.289 Q 36.417 32.07 35.551 31.164 Q 34.953 30.34 34.41 30.34 Q 33.757 30.34 33.407 30.862 Q 32.952 31.136 32.608 31.438 Q 30.308 31.357 30.342 32.219 Q 30.375 32.607 30.668 33.014 Q 31.254 33.601 32.91 33.914 M 67.049 43.108 Q 67.343 43.473 67.376 43.14 Q 67.703 42.807 67.748 41.168 Q 67.59 40.183 66.542 39.131 Q 65.494 38.08 65.178 38.788 Q 64.115 38.121 62.668 38.204 Q 51.828 38.039 41.593 38.835 Q 37.039 39.325 35.258 40.122 Q 35.032 40.603 35.032 41.415 Q 35.032 40.351 34.206 41.156 Q 33.358 41.96 33.375 43.64 Q 33.392 44.08 33.755 44.518 Q 33.938 44.549 34.535 43.676 Q 34.591 43.839 34.633 44.045 Q 36.186 44.498 40.632 44.746 Q 50.67 46.31 62.768 46.31 Q 66.892 46.288 67.049 43.108 M 69.166 30.94 Q 68.687 30.395 67.725 30.043 Q 67.066 29.596 66.113 30.525 Q 65.818 30.603 65.256 31.288 Q 64.749 31.836 64.03 32.14 Q 63.366 32.142 62.681 32.147 Q 62.381 32.152 62.061 32.16 Q 61.357 32.058 60.083 31.219 Q 58.488 30.382 57.88 30.653 Q 57.125 30.743 57.063 31.509 Q 57.001 32.193 57.687 33.14 Q 58.703 34.641 60.641 34.731 Q 61.445 34.979 63.533 34.93 Q 67.448 34.881 68.274 34.669 Q 68.513 34.57 68.729 34.422 Q 69.284 34.229 69.477 33.557 Q 69.67 33.022 69.367 32.662 Q 69.645 31.677 69.166 30.94"
            fill="#000000"
            stroke-width="1"/>
    </g>
</svg>

<svg
    viewBox="0 0 100 125"
    width="100px"
    height="125px"
    x="800px"
    y="0px">
    <g>
        <path
            d="M 82.8 28.3 Q 74.15 14.5 54 11.7 L 45.25 11.7 L 45.25 11.8 Q 27.3 14.25 18.3 28.15 Q 11.65 38.45 11.65 50.15 Q 11.65 62.75 18.1 72.25 Q 29.2 88.35 56.25 88.35 Q 65.55 88.35 73.1 85 Q 78.4 82.6 80 80.3 Q 85.2 73.2 87.2 62.7 Q 88.4 56.55 88.4 49.7 Q 88.4 37.4 82.8 28.3 M 54.55 16 Q 72.05 18.3 79.7 30.6 Q 84.75 38.8 84.75 49.85 Q 84.75 62.1 80.45 70.8 Q 73.7 84.55 57.9 83.5 L 46.7 83.5 Q 27.45 79.65 20.25 69.45 Q 15.3 62.5 15.3 50.3 Q 15.3 40.15 21.1 31 Q 28.95 18.55 44.7 16 L 54.55 16 M 32.932 33.777 Q 34.525 35.193 37.83 35.193 Q 39.49 35.193 40.935 34.806 Q 41.544 34.578 41.981 34.1 Q 42.4 33.673 42.663 33.15 Q 43.322 32.027 43.219 31.067 Q 43.1 29.134 41.709 30.27 Q 39.978 32.015 39.137 32.377 L 37.454 32.377 Q 36.316 32.113 35.441 31.027 Q 34.807 30.039 34.238 30.039 Q 33.537 30.039 33.199 30.665 Q 32.818 30.994 32.57 31.356 Q 30.828 31.299 30.868 32.013 Q 30.908 32.37 31.16 32.798 Q 31.633 33.362 32.932 33.777 M 64.987 43.349 Q 65.209 43.467 65.2 43.068 Q 65.412 42.669 65.377 41.291 Q 65.188 40.408 64.289 39.486 Q 63.39 38.564 63.012 38.985 Q 61.697 38.055 59.921 38.045 Q 50.972 37.848 42.747 38.802 Q 39.019 39.379 37.531 40.295 Q 37.22 40.972 37.22 42.006 Q 37.22 41.208 36.598 41.844 Q 35.96 42.48 35.98 43.798 Q 36 44.176 36.286 44.571 Q 36.436 44.659 36.903 44.079 Q 36.96 44.285 37.011 44.542 Q 38.205 44.986 41.595 45.293 Q 49.573 47.169 60.021 47.169 Q 64.868 47.152 64.987 43.349 M 68.895 30.736 Q 68.532 30.105 67.671 29.693 Q 66.977 29.16 65.94 30.276 Q 65.692 30.372 65.133 31.194 Q 64.64 31.852 63.901 32.215 Q 63.228 32.217 62.54 32.22 Q 62.313 32.224 62.071 32.23 Q 61.367 32.105 59.99 31.093 Q 58.406 30.12 57.837 30.324 Q 56.985 30.393 56.938 31.264 Q 56.891 32.037 57.715 33.118 Q 58.933 34.789 61.177 34.857 Q 61.912 35.045 63.61 34.986 Q 66.69 34.927 67.422 34.723 Q 67.709 34.604 67.968 34.426 Q 68.484 34.214 68.715 33.619 Q 68.947 33.126 68.793 32.744 Q 69.258 31.598 68.895 30.736"
            fill="#000000"
            stroke-width="1"/>
    </g>
</svg>

<svg
    viewBox="0 0 100 125"
    width="100px"
    height="125px"
    x="900px"
    y="0px">
    <g>
        <path
            d="M 82.8 28.3 Q 74.15 14.5 54 11.7 L 45.25 11.7 L 45.25 11.8 Q 27.3 14.25 18.3 28.15 Q 11.65 38.45 11.65 50.15 Q 11.65 62.75 18.1 72.25 Q 29.2 88.35 56.25 88.35 Q 65.55 88.35 73.1 85 Q 78.4 82.6 80 80.3 Q 85.2 73.2 87.2 62.7 Q 88.4 56.55 88.4 49.7 Q 88.4 37.4 82.8 28.3 M 54.55 16 Q 72.05 18.3 79.7 30.6 Q 84.75 38.8 84.75 49.85 Q 84.75 62.1 80.45 70.8 Q 73.7 84.55 57.9 83.5 L 46.7 83.5 Q 27.45 79.65 20.25 69.45 Q 15.3 62.5 15.3 50.3 Q 15.3 40.15 21.1 31 Q 28.95 18.55 44.7 16 L 54.55 16 M 32.949 33.67 Q 34.481 35.269 37.948 35.269 Q 39.555 35.269 40.92 34.832 Q 41.518 34.588 41.965 34.12 Q 42.4 33.689 42.697 33.15 Q 43.441 31.92 43.364 30.888 Q 43.275 28.776 41.794 30.065 Q 39.946 32.036 39.103 32.445 L 37.415 32.445 Q 36.237 32.147 35.356 30.92 Q 34.693 29.805 34.104 29.805 Q 33.366 29.805 33.037 30.511 Q 32.714 30.883 32.54 31.292 Q 31.233 31.253 31.278 31.853 Q 31.324 32.184 31.543 32.629 Q 31.928 33.176 32.949 33.67 M 63.38 43.536 Q 63.547 43.463 63.504 43.012 Q 63.628 42.561 63.529 41.387 Q 63.315 40.584 62.533 39.763 Q 61.751 38.941 61.324 39.139 Q 59.813 38.004 57.782 37.922 Q 50.305 37.698 43.647 38.777 Q 40.562 39.422 39.301 40.431 Q 38.925 41.26 38.925 42.466 Q 38.925 41.876 38.462 42.38 Q 37.987 42.885 38.009 43.92 Q 38.032 44.251 38.258 44.613 Q 38.382 44.744 38.748 44.394 Q 38.806 44.633 38.863 44.929 Q 39.778 45.366 42.345 45.719 Q 48.719 47.838 57.882 47.838 Q 63.291 47.826 63.38 43.536 M 68.684 30.577 Q 68.412 29.879 67.628 29.42 Q 66.908 28.821 65.805 30.083 Q 65.594 30.192 65.038 31.121 Q 64.555 31.864 63.801 32.274 Q 63.121 32.275 62.43 32.278 Q 62.26 32.281 62.078 32.285 Q 61.375 32.141 59.918 30.995 Q 58.342 29.915 57.803 30.069 Q 56.877 30.12 56.841 31.073 Q 56.806 31.915 57.736 33.101 Q 59.112 34.904 61.594 34.955 Q 62.276 35.096 63.669 35.029 Q 66.1 34.962 66.758 34.764 Q 67.082 34.631 67.375 34.43 Q 67.86 34.203 68.122 33.666 Q 68.384 33.207 68.345 32.808 Q 68.956 31.536 68.684 30.577"
            fill="#000000"
            stroke-width="1"/>
    </g>
</svg>

<svg
    viewBox="0 0 100 125"
    width="100px"
    height="125px"
    x="1000px"
    y="0px">
    <g>
        <path
            d="M 82.8 28.3 Q 74.15 14.5 54 11.7 L 45.25 11.7 L 45.25 11.8 Q 27.3 14.25 18.3 28.15 Q 11.65 38.45 11.65 50.15 Q 11.65 62.75 18.1 72.25 Q 29.2 88.35 56.25 88.35 Q 65.55 88.35 73.1 85 Q 78.4 82.6 80 80.3 Q 85.2 73.2 87.2 62.7 Q 88.4 56.55 88.4 49.7 Q 88.4 37.4 82.8 28.3 M 54.55 16 Q 72.05 18.3 79.7 30.6 Q 84.75 38.8 84.75 49.85 Q 84.75 62.1 80.45 70.8 Q 73.7 84.55 57.9 83.5 L 46.7 83.5 Q 27.45 79.65 20.25 69.45 Q 15.3 62.5 15.3 50.3 Q 15.3 40.15 21.1 31 Q 28.95 18.55 44.7 16 L 54.55 16 M 32.962 33.588 Q 34.447 35.329 38.039 35.329 Q 39.605 35.329 40.908 34.853 Q 41.497 34.596 41.953 34.135 Q 42.4 33.702 42.724 33.15 Q 43.534 31.838 43.477 30.749 Q 43.41 28.499 41.86 29.906 Q 39.921 32.052 39.076 32.498 L 37.386 32.498 Q 36.176 32.174 35.29 30.838 Q 34.604 29.623 34 29.623 Q 33.233 29.623 32.911 30.392 Q 32.633 30.797 32.517 31.243 Q 31.547 31.218 31.596 31.729 Q 31.646 32.041 31.84 32.498 Q 32.157 33.032 32.962 33.588 M 62.135 43.682 Q 62.258 43.46 62.189 42.969 Q 62.244 42.478 62.097 41.461 Q 61.864 40.72 61.173 39.977 Q 60.481 39.234 60.015 39.258 Q 58.353 37.964 56.123 37.826 Q 49.788 37.583 44.344 38.757 Q 41.758 39.455 40.674 40.536 Q 40.247 41.483 40.247 42.823 Q 40.247 42.394 39.907 42.796 Q 39.558 43.199 39.583 44.015 Q 39.608 44.309 39.787 44.645 Q 39.891 44.81 40.178 44.637 Q 40.237 44.902 40.299 45.229 Q 40.998 45.66 42.927 46.049 Q 48.056 48.357 56.223 48.357 Q 62.068 48.348 62.135 43.682 M 68.521 30.454 Q 68.319 29.704 67.595 29.209 Q 66.855 28.558 65.701 29.932 Q 65.518 30.052 64.963 31.064 Q 64.489 31.873 63.723 32.319 Q 63.039 32.32 62.345 32.322 Q 62.219 32.324 62.084 32.328 Q 61.382 32.169 59.862 30.919 Q 58.293 29.756 57.776 29.871 Q 56.792 29.909 56.766 30.926 Q 56.74 31.821 57.752 33.088 Q 59.251 34.993 61.918 35.031 Q 62.558 35.136 63.715 35.063 Q 65.643 34.99 66.243 34.797 Q 66.596 34.651 66.915 34.432 Q 67.377 34.195 67.662 33.704 Q 67.947 33.269 67.998 32.857 Q 68.723 31.488 68.521 30.454"
            fill="#000000"
            stroke-width="1"/>
    </g>
</svg>

<svg
    viewBox="0 0 100 125"
    width="100px"
    height="125px"
    x="1100px"
    y="0px">
    <g>
        <path
            d="M 82.8 28.3 Q 74.15 14.5 54 11.7 L 45.25 11.7 L 45.25 11.8 Q 27.3 14.25 18.3 28.15 Q 11.65 38.45 11.65 50.15 Q 11.65 62.75 18.1 72.25 Q 29.2 88.35 56.25 88.35 Q 65.55 88.35 73.1 85 Q 78.4 82.6 80 80.3 Q 85.2 73.2 87.2 62.7 Q 88.4 56.55 88.4 49.7 Q 88.4 37.4 82.8 28.3 M 54.55 16 Q 72.05 18.3 79.7 30.6 Q 84.75 38.8 84.75 49.85 Q 84.75 62.1 80.45 70.8 Q 73.7 84.55 57.9 83.5 L 46.7 83.5 Q 27.45 79.65 20.25 69.45 Q 15.3 62.5 15.3 50.3 Q 15.3 40.15 21.1 31 Q 28.95 18.55 44.7 16 L 54.55 16 M 32.972 33.523 Q 34.421 35.375 38.109 35.375 Q 39.644 35.375 40.899 34.869 Q 41.481 34.602 41.944 34.146 Q 42.4 33.711 42.744 33.15 Q 43.606 31.773 43.564 30.641 Q 43.516 28.283 41.911 29.783 Q 39.902 32.065 39.056 32.539 L 37.362 32.539 Q 36.128 32.194 35.239 30.773 Q 34.536 29.482 33.919 29.482 Q 33.129 29.482 32.814 30.3 Q 32.57 30.73 32.499 31.204 Q 31.791 31.191 31.843 31.633 Q 31.896 31.929 32.071 32.397 Q 32.336 32.92 32.972 33.523 M 61.166 43.795 Q 61.256 43.457 61.167 42.935 Q 61.168 42.413 60.983 41.519 Q 60.735 40.826 60.114 40.144 Q 59.493 39.461 58.998 39.35 Q 57.217 37.933 54.833 37.751 Q 49.386 37.493 44.886 38.742 Q 42.688 39.481 41.742 40.617 Q 41.274 41.657 41.274 43.101 Q 41.274 42.796 41.031 43.12 Q 40.78 43.443 40.807 44.089 Q 40.833 44.354 40.977 44.67 Q 41.065 44.861 41.291 44.827 Q 41.35 45.112 41.416 45.463 Q 41.947 45.89 43.379 46.306 Q 47.541 48.761 54.933 48.761 Q 61.117 48.754 61.166 43.795 M 68.393 30.358 Q 68.246 29.568 67.569 29.044 Q 66.813 28.353 65.619 29.816 Q 65.459 29.943 64.906 31.02 Q 64.438 31.88 63.663 32.355 Q 62.974 32.355 62.279 32.357 Q 62.187 32.358 62.088 32.361 Q 61.387 32.191 59.818 30.86 Q 58.254 29.633 57.756 29.716 Q 56.727 29.744 56.708 30.811 Q 56.689 31.748 57.765 33.078 Q 59.359 35.063 62.17 35.09 Q 62.777 35.167 63.751 35.089 Q 65.287 35.012 65.843 34.822 Q 66.218 34.667 66.558 34.434 Q 67.001 34.188 67.304 33.732 Q 67.607 33.318 67.729 32.896 Q 68.541 31.451 68.393 30.358"
            fill="#000000"
            stroke-width="1"/>
    </g>
</svg>

<svg
    viewBox="0 0 100 125"
    width="100px"
    height="125px"
    x="1200px"
    y="0px">
    <g>
        <path
            d="M 82.8 28.3 Q 74.15 14.5 54 11.7 L 45.25 11.7 L 45.25 11.8 Q 27.3 14.25 18.3 28.15 Q 11.65 38.45 11.65 50.15 Q 11.65 62.75 18.1 72.25 Q 29.2 88.35 56.25 88.35 Q 65.55 88.35 73.1 85 Q 78.4 82.6 80 80.3 Q 85.2 73.2 87.2 62.7 Q 88.4 56.55 88.4 49.7 Q 88.4 37.4 82.8 28.3 M 54.55 16 Q 72.05 18.3 79.7 30.6 Q 84.75 38.8 84.75 49.85 Q 84.75 62.1 80.45 70.8 Q 73.7 84.55 57.9 83.5 L 46.7 83.5 Q 27.45 79.65 20.25 69.45 Q 15.3 62.5 15.3 50.3 Q 15.3 40.15 21.1 31 Q 28.95 18.55 44.7 16 L 54.55 16 M 32.98 33.473 Q 34.401 35.411 38.164 35.411 Q 39.675 35.411 40.892 34.882 Q 41.468 34.607 41.937 34.156 Q 42.4 33.719 42.76 33.15 Q 43.662 31.723 43.632 30.557 Q 43.598 28.115 41.951 29.687 Q 39.887 32.075 39.04 32.571 L 37.344 32.571 Q 36.091 32.21 35.199 30.723 Q 34.482 29.372 33.856 29.372 Q 33.049 29.372 32.738 30.228 Q 32.521 30.678 32.485 31.174 Q 31.981 31.169 32.036 31.558 Q 32.091 31.842 32.251 32.318 Q 32.474 32.832 32.98 33.473 M 60.412 43.883 Q 60.476 43.455 60.371 42.909 Q 60.331 42.362 60.116 41.564 Q 59.857 40.909 59.29 40.273 Q 58.724 39.638 58.206 39.422 Q 56.333 37.909 53.829 37.693 Q 49.073 37.423 45.308 38.73 Q 43.412 39.501 42.573 40.681 Q 42.075 41.792 42.075 43.317 Q 42.075 43.11 41.906 43.371 Q 41.732 43.633 41.759 44.147 Q 41.787 44.389 41.902 44.689 Q 41.978 44.901 42.157 44.975 Q 42.217 45.275 42.285 45.644 Q 42.685 46.068 43.731 46.506 Q 47.14 49.075 53.929 49.075 Q 60.377 49.07 60.412 43.883 M 68.294 30.284 Q 68.19 29.462 67.549 28.916 Q 66.78 28.193 65.556 29.725 Q 65.413 29.859 64.861 30.985 Q 64.398 31.886 63.616 32.382 Q 62.924 32.383 62.227 32.384 Q 62.162 32.385 62.091 32.386 Q 61.391 32.208 59.784 30.814 Q 58.224 29.537 57.74 29.596 Q 56.676 29.616 56.662 30.721 Q 56.649 31.691 57.775 33.07 Q 59.443 35.117 62.366 35.136 Q 62.948 35.191 63.779 35.11 Q 65.01 35.029 65.531 34.842 Q 65.924 34.679 66.279 34.436 Q 66.708 34.183 67.026 33.755 Q 67.343 33.356 67.519 32.926 Q 68.399 31.422 68.294 30.284"
            fill="#000000"
            stroke-width="1"/>
    </g>
</svg>

<svg
    viewBox="0 0 100 125"
    width="100px"
    height="125px"
    x="1300px"
    y="0px">
    <g>
        <path
            d="M 82.8 28.3 Q 74.15 14.5 54 11.7 L 45.25 11.7 L 45.25 11.8 Q 27.3 14.25 18.3 28.15 Q 11.65 38.45 11.65 50.15 Q 11.65 62.75 18.1 72.25 Q 29.2 88.35 56.25 88.35 Q 65.55 88.35 73.1 85 Q 78.4 82.6 80 80.3 Q 85.2 73.2 87.2 62.7 Q 88.4 56.55 88.4 49.7 Q 88.4 37.4 82.8 28.3 M 54.55 16 Q 72.05 18.3 79.7 30.6 Q 84.75 38.8 84.75 49.85 Q 84.75 62.1 80.45 70.8 Q 73.7 84.55 57.9 83.5 L 46.7 83.5 Q 27.45 79.65 20.25 69.45 Q 15.3 62.5 15.3 50.3 Q 15.3 40.15 21.1 31 Q 28.95 18.55 44.7 16 L 54.55 16 M 32.986 33.435 Q 34.385 35.439 38.207 35.439 Q 39.698 35.439 40.887 34.891 Q 41.459 34.611 41.931 34.163 Q 42.4 33.725 42.773 33.15 Q 43.705 31.685 43.685 30.492 Q 43.661 27.985 41.982 29.613 Q 39.875 32.083 39.027 32.596 L 37.331 32.596 Q 36.063 32.223 35.168 30.685 Q 34.441 29.286 33.807 29.286 Q 32.986 29.286 32.679 30.172 Q 32.483 30.638 32.474 31.151 Q 32.128 31.153 32.185 31.5 Q 32.242 31.775 32.39 32.256 Q 32.582 32.765 32.986 33.435 M 59.828 43.951 Q 59.872 43.453 59.755 42.888 Q 59.682 42.323 59.444 41.599 Q 59.176 40.973 58.652 40.374 Q 58.128 39.775 57.592 39.478 Q 55.648 37.891 53.052 37.648 Q 48.83 37.369 45.635 38.72 Q 43.973 39.516 43.217 40.73 Q 42.694 41.896 42.694 43.484 Q 42.694 43.352 42.583 43.566 Q 42.468 43.781 42.497 44.191 Q 42.525 44.416 42.619 44.704 Q 42.685 44.932 42.827 45.089 Q 42.887 45.401 42.959 45.785 Q 43.257 46.206 44.003 46.661 Q 46.83 49.318 53.152 49.318 Q 59.804 49.314 59.828 43.951 M 68.218 30.226 Q 68.146 29.38 67.534 28.817 Q 66.755 28.07 65.507 29.654 Q 65.378 29.793 64.826 30.958 Q 64.368 31.89 63.58 32.403 Q 62.885 32.404 62.187 32.404 Q 62.142 32.405 62.094 32.406 Q 61.394 32.221 59.758 30.778 Q 58.201 29.463 57.727 29.503 Q 56.636 29.517 56.627 30.652 Q 56.618 31.647 57.783 33.064 Q 59.508 35.158 62.518 35.172 Q 63.081 35.209 63.801 35.125 Q 64.795 35.042 65.29 34.857 Q 65.696 34.689 66.064 34.437 Q 66.482 34.179 66.81 33.772 Q 67.138 33.386 67.356 32.949 Q 68.29 31.399 68.218 30.226"
            fill="#000000"
            stroke-width="1"/>
    </g>
</svg>

<svg
    viewBox="0 0 100 125"
    width="100px"
    height="125px"
    x="1400px"
    y="0px">
    <g>
        <path
            d="M 82.8 28.3 Q 74.15 14.5 54 11.7 L 45.25 11.7 L 45.25 11.8 Q 27.3 14.25 18.3 28.15 Q 11.65 38.45 11.65 50.15 Q 11.65 62.75 18.1 72.25 Q 29.2 88.35 56.25 88.35 Q 65.55 88.35 73.1 85 Q 78.4 82.6 80 80.3 Q 85.2 73.2 87.2 62.7 Q 88.4 56.55 88.4 49.7 Q 88.4 37.4 82.8 28.3 M 54.55 16 Q 72.05 18.3 79.7 30.6 Q 84.75 38.8 84.75 49.85 Q 84.75 62.1 80.45 70.8 Q 73.7 84.55 57.9 83.5 L 46.7 83.5 Q 27.45 79.65 20.25 69.45 Q 15.3 62.5 15.3 50.3 Q 15.3 40.15 21.1 31 Q 28.95 18.55 44.7 16 L 54.55 16 M 32.991 33.405 Q 34.373 35.46 38.239 35.46 Q 39.716 35.46 40.883 34.899 Q 41.451 34.614 41.927 34.168 Q 42.4 33.729 42.782 33.15 Q 43.738 31.655 43.725 30.443 Q 43.71 27.885 42.006 29.556 Q 39.867 32.089 39.018 32.615 L 37.32 32.615 Q 36.041 32.232 35.144 30.655 Q 34.409 29.221 33.769 29.221 Q 32.939 29.221 32.634 30.129 Q 32.454 30.607 32.465 31.133 Q 32.24 31.14 32.299 31.455 Q 32.357 31.724 32.496 32.209 Q 32.664 32.713 32.991 33.405 M 59.382 44.003 Q 59.41 43.452 59.284 42.873 Q 59.186 42.293 58.931 41.625 Q 58.657 41.021 58.165 40.451 Q 57.673 39.88 57.124 39.521 Q 55.125 37.876 52.457 37.614 Q 48.645 37.327 45.884 38.713 Q 44.401 39.528 43.708 40.767 Q 43.168 41.976 43.168 43.612 Q 43.168 43.538 43.101 43.715 Q 43.031 43.893 43.06 44.225 Q 43.09 44.436 43.167 44.716 Q 43.226 44.956 43.339 45.176 Q 43.4 45.498 43.473 45.893 Q 43.694 46.312 44.212 46.779 Q 46.592 49.504 52.557 49.504 Q 59.366 49.501 59.382 44.003 M 68.159 30.182 Q 68.112 29.317 67.522 28.741 Q 66.736 27.976 65.47 29.6 Q 65.351 29.743 64.8 30.938 Q 64.344 31.894 63.552 32.42 Q 62.855 32.42 62.157 32.42 Q 62.128 32.421 62.096 32.422 Q 61.396 32.231 59.738 30.751 Q 58.183 29.406 57.718 29.432 Q 56.606 29.441 56.6 30.599 Q 56.594 31.613 57.789 33.059 Q 59.557 35.19 62.634 35.199 Q 63.182 35.224 63.817 35.137 Q 64.632 35.051 65.106 34.868 Q 65.522 34.696 65.899 34.438 Q 66.309 34.176 66.645 33.785 Q 66.982 33.408 67.232 32.967 Q 68.206 31.382 68.159 30.182"
            fill="#000000"
            stroke-width="1"/>
    </g>
</svg>

<svg
    viewBox="0 0 100 125"
    width="100px"
    height="125px"
    x="1500px"
    y="0px">
    <g>
        <path
            d="M 82.8 28.3 Q 74.15 14.5 54 11.7 L 45.25 11.7 L 45.25 11.8 Q 27.3 14.25 18.3 28.15 Q 11.65 38.45 11.65 50.15 Q 11.65 62.75 18.1 72.25 Q 29.2 88.35 56.25 88.35 Q 65.55 88.35 73.1 85 Q 78.4 82.6 80 80.3 Q 85.2 73.2 87.2 62.7 Q 88.4 56.55 88.4 49.7 Q 88.4 37.4 82.8 28.3 M 54.55 16 Q 72.05 18.3 79.7 30.6 Q 84.75 38.8 84.75 49.85 Q 84.75 62.1 80.45 70.8 Q 73.7 84.55 57.9 83.5 L 46.7 83.5 Q 27.45 79.65 20.25 69.45 Q 15.3 62.5 15.3 50.3 Q 15.3 40.15 21.1 31 Q 28.95 18.55 44.7 16 L 54.55 16 M 32.995 33.383 Q 34.364 35.476 38.264 35.476 Q 39.73 35.476 40.88 34.904 Q 41.446 34.616 41.924 34.172 Q 42.4 33.733 42.789 33.15 Q 43.763 31.633 43.755 30.406 Q 43.746 27.811 42.024 29.514 Q 39.86 32.093 39.011 32.629 L 37.312 32.629 Q 36.025 32.239 35.126 30.633 Q 34.385 29.173 33.742 29.173 Q 32.903 29.173 32.6 30.098 Q 32.432 30.584 32.459 31.12 Q 32.324 31.131 32.384 31.422 Q 32.443 31.685 32.575 32.175 Q 32.725 32.675 32.995 33.383 M 59.049 44.042 Q 59.067 43.451 58.933 42.861 Q 58.817 42.271 58.549 41.645 Q 58.269 41.058 57.802 40.508 Q 57.334 39.958 56.775 39.552 Q 54.735 37.866 52.015 37.588 Q 48.507 37.296 46.071 38.708 Q 44.721 39.537 44.075 40.795 Q 43.52 42.036 43.52 43.707 Q 43.52 43.676 43.486 43.826 Q 43.451 43.977 43.48 44.251 Q 43.51 44.452 43.575 44.725 Q 43.628 44.974 43.721 45.241 Q 43.782 45.57 43.856 45.973 Q 44.019 46.39 44.367 46.868 Q 46.416 49.642 52.115 49.642 Q 59.04 49.641 59.049 44.042 M 68.116 30.149 Q 68.087 29.27 67.513 28.685 Q 66.722 27.906 65.442 29.56 Q 65.33 29.706 64.78 30.923 Q 64.326 31.896 63.531 32.432 Q 62.833 32.432 62.134 32.432 Q 62.117 32.432 62.098 32.433 Q 61.397 32.239 59.723 30.73 Q 58.17 29.364 57.711 29.379 Q 56.584 29.385 56.58 30.559 Q 56.576 31.588 57.793 33.055 Q 59.594 35.214 62.72 35.22 Q 63.257 35.234 63.83 35.146 Q 64.509 35.059 64.968 34.877 Q 65.393 34.702 65.776 34.439 Q 66.18 34.173 66.522 33.795 Q 66.865 33.425 67.139 32.98 Q 68.144 31.369 68.116 30.149"
            fill="#000000"
            stroke-width="1"/>
    </g>
</svg>

<svg
    viewBox="0 0 100 125"
    width="100px"
    height="125px"
    x="1600px"
    y="0px">
    <g>
        <path
            d="M 82.8 28.3 Q 74.15 14.5 54 11.7 L 45.25 11.7 L 45.25 11.8 Q 27.3 14.25 18.3 28.15 Q 11.65 38.45 11.65 50.15 Q 11.65 62.75 18.1 72.25 Q 29.2 88.35 56.25 88.35 Q 65.55 88.35 73.1 85 Q 78.4 82.6 80 80.3 Q 85.2 73.2 87.2 62.7 Q 88.4 56.55 88.4 49.7 Q 88.4 37.4 82.8 28.3 M 54.55 16 Q 72.05 18.3 79.7 30.6 Q 84.75 38.8 84.75 49.85 Q 84.75 62.1 80.45 70.8 Q 73.7 84.55 57.9 83.5 L 46.7 83.5 Q 27.45 79.65 20.25 69.45 Q 15.3 62.5 15.3 50.3 Q 15.3 40.15 21.1 31 Q 28.95 18.55 44.7 16 L 54.55 16 M 32.997 33.367 Q 34.357 35.487 38.281 35.487 Q 39.739 35.487 40.877 34.908 Q 41.442 34.617 41.921 34.175 Q 42.4 33.735 42.794 33.15 Q 43.78 31.617 43.776 30.379 Q 43.771 27.759 42.036 29.483 Q 39.855 32.097 39.006 32.639 L 37.306 32.639 Q 36.013 32.244 35.114 30.617 Q 34.369 29.138 33.722 29.138 Q 32.878 29.138 32.576 30.075 Q 32.417 30.568 32.455 31.11 Q 32.384 31.124 32.444 31.398 Q 32.504 31.658 32.632 32.15 Q 32.768 32.647 32.997 33.367 M 58.813 44.069 Q 58.822 43.451 58.683 42.853 Q 58.554 42.255 58.277 41.659 Q 57.994 41.084 57.543 40.549 Q 57.093 40.013 56.526 39.575 Q 54.458 37.858 51.7 37.57 Q 48.409 37.274 46.203 38.704 Q 44.948 39.543 44.336 40.815 Q 43.771 42.078 43.771 43.775 Q 43.771 43.774 43.761 43.905 Q 43.749 44.037 43.779 44.269 Q 43.809 44.463 43.865 44.731 Q 43.915 44.986 43.993 45.287 Q 44.054 45.621 44.129 46.03 Q 44.251 46.446 44.477 46.93 Q 46.29 49.741 51.8 49.741 Q 58.808 49.74 58.813 44.069 M 68.084 30.126 Q 68.07 29.237 67.507 28.645 Q 66.711 27.856 65.422 29.532 Q 65.316 29.679 64.766 30.912 Q 64.314 31.898 63.516 32.44 Q 62.817 32.44 62.118 32.441 Q 62.109 32.441 62.099 32.441 Q 61.399 32.244 59.712 30.716 Q 58.16 29.333 57.706 29.342 Q 56.568 29.345 56.566 30.531 Q 56.564 31.57 57.797 33.053 Q 59.621 35.231 62.782 35.234 Q 63.311 35.242 63.838 35.153 Q 64.422 35.064 64.871 34.883 Q 65.3 34.706 65.689 34.439 Q 66.088 34.172 66.435 33.802 Q 66.782 33.437 67.073 32.99 Q 68.099 31.36 68.084 30.126"
            fill="#000000"
            stroke-width="1"/>
    </g>
</svg>

<svg
    viewBox="0 0 100 125"
    width="100px"
    height="125px"
    x="1700px"
    y="0px">
    <g>
        <path
            d="M 82.8 28.3 Q 74.15 14.5 54 11.7 L 45.25 11.7 L 45.25 11.8 Q 27.3 14.25 18.3 28.15 Q 11.65 38.45 11.65 50.15 Q 11.65 62.75 18.1 72.25 Q 29.2 88.35 56.25 88.35 Q 65.55 88.35 73.1 85 Q 78.4 82.6 80 80.3 Q 85.2 73.2 87.2 62.7 Q 88.4 56.55 88.4 49.7 Q 88.4 37.4 82.8 28.3 M 54.55 16 Q 72.05 18.3 79.7 30.6 Q 84.75 38.8 84.75 49.85 Q 84.75 62.1 80.45 70.8 Q 73.7 84.55 57.9 83.5 L 46.7 83.5 Q 27.45 79.65 20.25 69.45 Q 15.3 62.5 15.3 50.3 Q 15.3 40.15 21.1 31 Q 28.95 18.55 44.7 16 L 54.55 16 M 32.999 33.357 Q 34.353 35.495 38.292 35.495 Q 39.746 35.495 40.876 34.911 Q 41.439 34.618 41.92 34.177 Q 42.4 33.736 42.798 33.15 Q 43.792 31.607 43.79 30.362 Q 43.788 27.724 42.044 29.464 Q 39.852 32.099 39.002 32.645 L 37.303 32.645 Q 36.005 32.248 35.106 30.607 Q 34.358 29.116 33.709 29.116 Q 32.861 29.116 32.561 30.06 Q 32.407 30.557 32.452 31.104 Q 32.423 31.12 32.484 31.383 Q 32.544 31.64 32.669 32.134 Q 32.797 32.629 32.999 33.357 M 58.658 44.087 Q 58.661 43.45 58.52 42.847 Q 58.382 42.245 58.099 41.669 Q 57.813 41.101 57.374 40.575 Q 56.935 40.05 56.363 39.59 Q 54.276 37.853 51.493 37.558 Q 48.345 37.26 46.29 38.702 Q 45.097 39.547 44.506 40.828 Q 43.936 42.106 43.936 43.819 Q 43.936 43.839 43.94 43.957 Q 43.945 44.076 43.975 44.281 Q 44.006 44.47 44.055 44.735 Q 44.103 44.994 44.171 45.318 Q 44.232 45.654 44.308 46.067 Q 44.403 46.483 44.55 46.971 Q 46.207 49.805 51.593 49.805 Q 58.656 49.805 58.658 44.087 M 68.064 30.111 Q 68.058 29.215 67.503 28.618 Q 66.705 27.823 65.409 29.513 Q 65.307 29.662 64.756 30.905 Q 64.306 31.899 63.507 32.446 Q 62.807 32.446 62.107 32.446 Q 62.104 32.446 62.1 32.446 Q 61.399 32.248 59.705 30.707 Q 58.154 29.314 57.702 29.317 Q 56.557 29.318 56.556 30.513 Q 56.556 31.558 57.799 33.051 Q 59.638 35.242 62.822 35.243 Q 63.346 35.247 63.844 35.157 Q 64.366 35.068 64.806 34.887 Q 65.24 34.708 65.632 34.44 Q 66.028 34.171 66.378 33.807 Q 66.728 33.445 67.03 32.996 Q 68.07 31.354 68.064 30.111"
            fill="#000000"
            stroke-width="1"/>
    </g>
</svg>

<svg
    viewBox="0 0 100 125"
    width="100px"
    height="125px"
    x="1800px"
    y="0px">
    <g>
        <path
            d="M 82.8 28.3 Q 74.15 14.5 54 11.7 L 45.25 11.7 L 45.25 11.8 Q 27.3 14.25 18.3 28.15 Q 11.65 38.45 11.65 50.15 Q 11.65 62.75 18.1 72.25 Q 29.2 88.35 56.25 88.35 Q 65.55 88.35 73.1 85 Q 78.4 82.6 80 80.3 Q 85.2 73.2 87.2 62.7 Q 88.4 56.55 88.4 49.7 Q 88.4 37.4 82.8 28.3 M 54.55 16 Q 72.05 18.3 79.7 30.6 Q 84.75 38.8 84.75 49.85 Q 84.75 62.1 80.45 70.8 Q 73.7 84.55 57.9 83.5 L 46.7 83.5 Q 27.45 79.65 20.25 69.45 Q 15.3 62.5 15.3 50.3 Q 15.3 40.15 21.1 31 Q 28.95 18.55 44.7 16 L 54.55 16 M 33 33.352 Q 34.351 35.499 38.298 35.499 Q 39.749 35.499 40.875 34.912 Q 41.438 34.619 41.919 34.178 Q 42.4 33.737 42.8 33.15 Q 43.798 31.602 43.798 30.353 Q 43.797 27.705 42.049 29.453 Q 39.85 32.1 39 32.649 L 37.301 32.649 Q 36.001 32.25 35.101 30.602 Q 34.352 29.103 33.702 29.103 Q 32.852 29.103 32.552 30.052 Q 32.402 30.552 32.45 31.101 Q 32.444 31.117 32.505 31.375 Q 32.566 31.63 32.689 32.125 Q 32.812 32.619 33 33.352 M 58.573 44.097 Q 58.574 43.45 58.431 42.845 Q 58.288 42.239 58.002 41.674 Q 57.714 41.11 57.281 40.59 Q 56.849 40.07 56.274 39.598 Q 54.177 37.851 51.381 37.552 Q 48.31 37.252 46.337 38.7 Q 45.178 39.549 44.6 40.836 Q 44.025 42.121 44.025 43.843 Q 44.025 43.874 44.038 43.985 Q 44.051 44.097 44.082 44.287 Q 44.112 44.474 44.159 44.737 Q 44.205 44.999 44.268 45.334 Q 44.329 45.673 44.405 46.087 Q 44.486 46.503 44.589 46.994 Q 46.162 49.84 51.481 49.84 Q 58.573 49.84 58.573 44.097 M 68.053 30.102 Q 68.052 29.203 67.501 28.604 Q 66.701 27.805 65.402 29.503 Q 65.301 29.653 64.751 30.901 Q 64.301 31.9 63.501 32.449 Q 62.802 32.449 62.102 32.449 Q 62.101 32.449 62.1 32.449 Q 61.4 32.249 59.701 30.701 Q 58.151 29.303 57.7 29.304 Q 56.552 29.304 56.551 30.503 Q 56.551 31.552 57.8 33.05 Q 59.647 35.248 62.844 35.249 Q 63.365 35.249 63.847 35.159 Q 64.334 35.069 64.772 34.889 Q 65.207 34.71 65.601 34.44 Q 65.995 34.17 66.347 33.809 Q 66.698 33.449 67.006 32.999 Q 68.054 31.351 68.053 30.102"
            fill="#000000"
            stroke-width="1"/>
    </g>
</svg>

<svg
    viewBox="0 0 100 125"
    width="100px"
    height="125px"
    x="1900px"
    y="0px">
    <g>
        <path
            d="M 82.8 28.3 Q 74.15 14.5 54 11.7 L 45.25 11.7 L 45.25 11.8 Q 27.3 14.25 18.3 28.15 Q 11.65 38.45 11.65 50.15 Q 11.65 62.75 18.1 72.25 Q 29.2 88.35 56.25 88.35 Q 65.55 88.35 73.1 85 Q 78.4 82.6 80 80.3 Q 85.2 73.2 87.2 62.7 Q 88.4 56.55 88.4 49.7 Q 88.4 37.4 82.8 28.3 M 54.55 16 Q 72.05 18.3 79.7 30.6 Q 84.75 38.8 84.75 49.85 Q 84.75 62.1 80.45 70.8 Q 73.7 84.55 57.9 83.5 L 46.7 83.5 Q 27.45 79.65 20.25 69.45 Q 15.3 62.5 15.3 50.3 Q 15.3 40.15 21.1 31 Q 28.95 18.55 44.7 16 L 54.55 16 M 33 33.35 Q 34.35 35.5 38.3 35.5 Q 41.2 35.5 42.8 33.15 Q 43.8 31.6 43.8 30.35 Q 43.8 27.701 42.05 29.451 Q 39.85 32.1 39 32.65 L 37.3 32.65 Q 36 32.25 35.1 30.6 Q 34.35 29.1 33.7 29.1 Q 32.85 29.1 32.55 30.05 Q 32.4 30.55 32.45 31.1 Q 32.449 31.117 32.51 31.373 Q 32.571 31.628 32.694 32.123 Q 32.816 32.617 33 33.35 M 58.553 44.1 Q 58.553 43.45 58.41 42.844 Q 58.266 42.238 57.979 41.675 Q 57.691 41.112 57.26 40.593 Q 56.828 40.074 56.253 39.6 Q 54.154 37.85 51.354 37.55 Q 48.301 37.25 46.348 38.7 Q 45.197 39.55 44.622 40.837 Q 44.047 42.124 44.047 43.849 Q 44.047 43.882 44.062 43.992 Q 44.077 44.102 44.107 44.289 Q 44.138 44.475 44.184 44.737 Q 44.23 45 44.291 45.338 Q 44.352 45.677 44.428 46.092 Q 44.505 46.508 44.599 46.999 Q 46.152 49.849 51.454 49.849 Q 58.553 49.849 58.553 44.1 M 68.051 30.101 Q 68.051 29.201 67.501 28.601 Q 66.701 27.801 65.401 29.5 Q 65.301 29.65 64.751 30.9 Q 64.301 31.9 63.501 32.45 Q 62.801 32.45 62.1 32.45 Q 62.1 32.45 62.1 32.45 Q 61.4 32.25 59.7 30.7 Q 58.15 29.301 57.7 29.301 Q 56.55 29.301 56.55 30.5 Q 56.55 31.55 57.8 33.05 Q 59.65 35.25 62.85 35.25 Q 65.451 35.25 67.001 33 Q 68.051 31.351 68.051 30.101"
            fill="#000000"
            stroke-width="1"/>
    </g>
</svg>

<svg
    viewBox="0 0 100 125"
    width="100px"
    height="125px"
    x="2000px"
    y="0px">
    <g>
        <path
            d="M 82.8 28.3 Q 74.15 14.5 54 11.7 L 45.25 11.7 L 45.25 11.8 Q 27.3 14.25 18.3 28.15 Q 11.65 38.45 11.65 50.15 Q 11.65 62.75 18.1 72.25 Q 29.2 88.35 56.25 88.35 Q 65.55 88.35 73.1 85 Q 78.4 82.6 80 80.3 Q 85.2 73.2 87.2 62.7 Q 88.4 56.55 88.4 49.7 Q 88.4 37.4 82.8 28.3 M 54.55 16 Q 72.05 18.3 79.7 30.6 Q 84.75 38.8 84.75 49.85 Q 84.75 62.1 80.45 70.8 Q 73.7 84.55 57.9 83.5 L 46.7 83.5 Q 27.45 79.65 20.25 69.45 Q 15.3 62.5 15.3 50.3 Q 15.3 40.15 21.1 31 Q 28.95 18.55 44.7 16 L 54.55 16 M 32.996 33.373 Q 34.397 35.484 38.35 35.484 Q 41.21 35.482 42.787 33.164 Q 43.775 31.635 43.775 30.401 Q 43.775 27.793 42.051 29.504 Q 39.884 32.096 39.037 32.636 L 37.338 32.636 Q 36.047 32.243 35.148 30.623 Q 34.397 29.15 33.743 29.15 Q 32.894 29.15 32.584 30.083 Q 32.422 30.573 32.456 31.114 Q 32.364 31.126 32.424 31.406 Q 32.484 31.667 32.613 32.158 Q 32.754 32.656 32.996 33.373 M 58.89 44.06 Q 58.902 43.451 58.766 42.856 Q 58.641 42.26 58.366 41.655 Q 58.084 41.075 57.628 40.535 Q 57.172 39.995 56.608 39.567 Q 54.549 37.861 51.803 37.576 Q 48.441 37.282 46.159 38.705 Q 44.873 39.541 44.25 40.809 Q 43.689 42.064 43.689 43.752 Q 43.689 43.742 43.67 43.879 Q 43.651 44.017 43.681 44.263 Q 43.711 44.459 43.77 44.729 Q 43.821 44.982 43.904 45.272 Q 43.964 45.604 44.039 46.011 Q 44.175 46.428 44.441 46.91 Q 46.331 49.708 51.903 49.708 Q 58.884 49.707 58.89 44.06 M 68.131 30.178 Q 68.145 29.292 67.605 28.684 Q 66.819 27.885 65.524 29.55 Q 65.414 29.694 64.854 30.919 Q 64.393 31.899 63.581 32.438 Q 62.868 32.437 62.147 32.438 Q 62.113 32.438 62.072 32.439 Q 61.355 32.24 59.671 30.729 Q 58.144 29.358 57.7 29.362 Q 56.568 29.366 56.568 30.55 Q 56.568 31.592 57.803 33.069 Q 59.64 35.239 62.855 35.239 Q 65.555 35.239 67.1 33.025 Q 68.131 31.405 68.131 30.178"
            fill="#000000"
            stroke-width="1"/>
    </g>
</svg>

<svg
    viewBox="0 0 100 125"
    width="100px"
    height="125px"
    x="2100px"
    y="0px">
    <g>
        <path
            d="M 82.8 28.3 Q 74.15 14.5 54 11.7 L 45.25 11.7 L 45.25 11.8 Q 27.3 14.25 18.3 28.15 Q 11.65 38.45 11.65 50.15 Q 11.65 62.75 18.1 72.25 Q 29.2 88.35 56.25 88.35 Q 65.55 88.35 73.1 85 Q 78.4 82.6 80 80.3 Q 85.2 73.2 87.2 62.7 Q 88.4 56.55 88.4 49.7 Q 88.4 37.4 82.8 28.3 M 54.55 16 Q 72.05 18.3 79.7 30.6 Q 84.75 38.8 84.75 49.85 Q 84.75 62.1 80.45 70.8 Q 73.7 84.55 57.9 83.5 L 46.7 83.5 Q 27.45 79.65 20.25 69.45 Q 15.3 62.5 15.3 50.3 Q 15.3 40.15 21.1 31 Q 28.95 18.55 44.7 16 L 54.55 16 M 32.988 33.425 Q 34.504 35.446 38.465 35.446 Q 41.233 35.44 42.758 33.198 Q 43.716 31.717 43.716 30.518 Q 43.716 28.008 42.053 29.629 Q 39.964 32.088 39.123 32.602 L 37.426 32.602 Q 36.154 32.226 35.259 30.675 Q 34.504 29.265 33.844 29.265 Q 32.995 29.265 32.664 30.158 Q 32.473 30.628 32.471 31.145 Q 32.166 31.149 32.223 31.485 Q 32.281 31.758 32.426 32.241 Q 32.609 32.747 32.988 33.425 M 59.678 43.968 Q 59.717 43.453 59.596 42.883 Q 59.515 42.313 59.272 41.608 Q 59.001 40.989 58.488 40.4 Q 57.975 39.81 57.435 39.492 Q 55.472 37.886 52.852 37.637 Q 48.768 37.355 45.719 38.718 Q 44.117 39.52 43.382 40.743 Q 42.854 41.923 42.854 43.527 Q 42.854 43.415 42.757 43.617 Q 42.658 43.818 42.687 44.203 Q 42.715 44.423 42.803 44.708 Q 42.867 44.94 43 45.118 Q 43.06 45.434 43.132 45.821 Q 43.404 46.242 44.074 46.701 Q 46.75 49.38 52.952 49.38 Q 59.657 49.377 59.678 43.968 M 68.319 30.357 Q 68.364 29.505 67.847 28.878 Q 67.095 28.081 65.81 29.665 Q 65.676 29.795 65.095 30.964 Q 64.609 31.897 63.769 32.411 Q 63.024 32.408 62.254 32.409 Q 62.143 32.41 62.007 32.414 Q 61.25 32.217 59.604 30.796 Q 58.131 29.491 57.699 29.506 Q 56.61 29.52 56.61 30.665 Q 56.61 31.691 57.809 33.113 Q 59.617 35.214 62.868 35.214 Q 65.797 35.214 67.332 33.084 Q 68.319 31.532 68.319 30.357"
            fill="#000000"
            stroke-width="1"/>
    </g>
</svg>

<svg
    viewBox="0 0 100 125"
    width="100px"
    height="125px"
    x="2200px"
    y="0px">
    <g>
        <path
            d="M 82.8 28.3 Q 74.15 14.5 54 11.7 L 45.25 11.7 L 45.25 11.8 Q 27.3 14.25 18.3 28.15 Q 11.65 38.45 11.65 50.15 Q 11.65 62.75 18.1 72.25 Q 29.2 88.35 56.25 88.35 Q 65.55 88.35 73.1 85 Q 78.4 82.6 80 80.3 Q 85.2 73.2 87.2 62.7 Q 88.4 56.55 88.4 49.7 Q 88.4 37.4 82.8 28.3 M 54.55 16 Q 72.05 18.3 79.7 30.6 Q 84.75 38.8 84.75 49.85 Q 84.75 62.1 80.45 70.8 Q 73.7 84.55 57.9 83.5 L 46.7 83.5 Q 27.45 79.65 20.25 69.45 Q 15.3 62.5 15.3 50.3 Q 15.3 40.15 21.1 31 Q 28.95 18.55 44.7 16 L 54.55 16 M 32.976 33.5 Q 34.659 35.392 38.63 35.392 Q 41.266 35.38 42.716 33.246 Q 43.632 31.834 43.632 30.686 Q 43.632 28.318 42.056 29.81 Q 40.078 32.076 39.246 32.554 L 37.552 32.554 Q 36.309 32.202 35.418 30.75 Q 34.659 29.43 33.988 29.43 Q 33.141 29.43 32.778 30.266 Q 32.547 30.706 32.492 31.19 Q 31.88 31.181 31.934 31.597 Q 31.988 31.888 32.155 32.359 Q 32.401 32.879 32.976 33.5 M 60.811 43.836 Q 60.889 43.456 60.792 42.922 Q 60.773 42.389 60.574 41.54 Q 60.321 40.865 59.726 40.205 Q 59.131 39.544 58.624 39.384 Q 56.8 37.922 54.36 37.724 Q 49.238 37.46 45.085 38.736 Q 43.029 39.49 42.134 40.647 Q 41.652 41.72 41.652 43.202 Q 41.652 42.944 41.443 43.238 Q 41.229 43.533 41.256 44.116 Q 41.282 44.37 41.413 44.679 Q 41.495 44.88 41.699 44.897 Q 41.759 45.189 41.826 45.548 Q 42.295 45.974 43.545 46.4 Q 47.352 48.909 54.46 48.909 Q 60.769 48.903 60.811 43.836 M 68.59 30.616 Q 68.68 29.812 68.196 29.158 Q 67.491 28.364 66.221 29.83 Q 66.054 29.941 65.443 31.027 Q 64.919 31.894 64.04 32.372 Q 63.248 32.366 62.409 32.368 Q 62.185 32.369 61.914 32.378 Q 61.1 32.184 59.508 30.892 Q 58.111 29.684 57.699 29.712 Q 56.67 29.741 56.67 30.83 Q 56.67 31.832 57.818 33.176 Q 59.584 35.178 62.886 35.178 Q 66.146 35.178 67.666 33.168 Q 68.59 31.716 68.59 30.616"
            fill="#000000"
            stroke-width="1"/>
    </g>
</svg>

<svg
    viewBox="0 0 100 125"
    width="100px"
    height="125px"
    x="2300px"
    y="0px">
    <g>
        <path
            d="M 82.8 28.3 Q 74.15 14.5 54 11.7 L 45.25 11.7 L 45.25 11.8 Q 27.3 14.25 18.3 28.15 Q 11.65 38.45 11.65 50.15 Q 11.65 62.75 18.1 72.25 Q 29.2 88.35 56.25 88.35 Q 65.55 88.35 73.1 85 Q 78.4 82.6 80 80.3 Q 85.2 73.2 87.2 62.7 Q 88.4 56.55 88.4 49.7 Q 88.4 37.4 82.8 28.3 M 54.55 16 Q 72.05 18.3 79.7 30.6 Q 84.75 38.8 84.75 49.85 Q 84.75 62.1 80.45 70.8 Q 73.7 84.55 57.9 83.5 L 46.7 83.5 Q 27.45 79.65 20.25 69.45 Q 15.3 62.5 15.3 50.3 Q 15.3 40.15 21.1 31 Q 28.95 18.55 44.7 16 L 54.55 16 M 32.961 33.593 Q 34.852 35.325 38.836 35.325 Q 41.307 35.305 42.664 33.306 Q 43.527 31.98 43.527 30.895 Q 43.527 28.703 42.06 30.034 Q 40.22 32.061 39.399 32.494 L 37.709 32.494 Q 36.502 32.172 35.616 30.843 Q 34.852 29.636 34.168 29.636 Q 33.322 29.636 32.92 30.401 Q 32.639 30.803 32.518 31.246 Q 31.525 31.221 31.574 31.738 Q 31.623 32.051 31.819 32.507 Q 32.141 33.042 32.961 33.593 M 62.222 43.671 Q 62.349 43.46 62.282 42.972 Q 62.341 42.483 62.197 41.456 Q 61.966 40.711 61.268 39.962 Q 60.57 39.213 60.107 39.249 Q 58.455 37.967 56.239 37.832 Q 49.824 37.591 44.295 38.758 Q 41.674 39.453 40.578 40.528 Q 40.154 41.468 40.154 42.798 Q 40.154 42.357 39.806 42.767 Q 39.448 43.177 39.473 44.009 Q 39.497 44.305 39.68 44.643 Q 39.785 44.805 40.078 44.62 Q 40.137 44.883 40.199 45.208 Q 40.913 45.64 42.886 46.026 Q 48.103 48.321 56.339 48.321 Q 62.154 48.311 62.222 43.671 M 68.927 30.938 Q 69.073 30.193 68.63 29.506 Q 67.986 28.716 66.734 30.036 Q 66.525 30.122 65.875 31.107 Q 65.306 31.89 64.377 32.323 Q 63.528 32.314 62.602 32.316 Q 62.239 32.319 61.798 32.333 Q 60.913 32.143 59.388 31.012 Q 58.087 29.923 57.698 29.97 Q 56.745 30.016 56.745 31.036 Q 56.745 32.008 57.829 33.255 Q 59.543 35.133 62.908 35.133 Q 66.58 35.133 68.081 33.273 Q 68.927 31.944 68.927 30.938"
            fill="#000000"
            stroke-width="1"/>
    </g>
</svg>

<svg
    viewBox="0 0 100 125"
    width="100px"
    height="125px"
    x="2400px"
    y="0px">
    <g>
        <path
            d="M 82.8 28.3 Q 74.15 14.5 54 11.7 L 45.25 11.7 L 45.25 11.8 Q 27.3 14.25 18.3 28.15 Q 11.65 38.45 11.65 50.15 Q 11.65 62.75 18.1 72.25 Q 29.2 88.35 56.25 88.35 Q 65.55 88.35 73.1 85 Q 78.4 82.6 80 80.3 Q 85.2 73.2 87.2 62.7 Q 88.4 56.55 88.4 49.7 Q 88.4 37.4 82.8 28.3 M 54.55 16 Q 72.05 18.3 79.7 30.6 Q 84.75 38.8 84.75 49.85 Q 84.75 62.1 80.45 70.8 Q 73.7 84.55 57.9 83.5 L 46.7 83.5 Q 27.45 79.65 20.25 69.45 Q 15.3 62.5 15.3 50.3 Q 15.3 40.15 21.1 31 Q 28.95 18.55 44.7 16 L 54.55 16 M 32.944 33.703 Q 35.076 35.246 39.076 35.246 Q 41.355 35.218 42.603 33.376 Q 43.405 32.15 43.405 31.14 Q 43.405 29.152 42.064 30.296 Q 40.386 32.044 39.578 32.424 L 37.892 32.424 Q 36.726 32.137 35.847 30.953 Q 35.076 29.876 34.377 29.876 Q 33.534 29.876 33.086 30.558 Q 32.745 30.917 32.549 31.312 Q 31.11 31.267 31.154 31.902 Q 31.198 32.24 31.427 32.68 Q 31.839 33.232 32.944 33.703 M 63.866 43.48 Q 64.049 43.464 64.017 43.029 Q 64.167 42.594 64.088 41.358 Q 63.881 40.531 63.064 39.679 Q 62.247 38.827 61.834 39.092 Q 60.383 38.019 58.429 37.959 Q 50.507 37.744 43.375 38.785 Q 40.095 39.409 38.766 40.39 Q 38.41 41.173 38.41 42.327 Q 38.41 41.674 37.899 42.218 Q 37.374 42.762 37.396 43.883 Q 37.418 44.228 37.662 44.6 Q 37.794 44.718 38.19 44.299 Q 38.248 44.528 38.303 44.812 Q 39.303 45.251 42.118 45.59 Q 48.977 47.636 58.529 47.636 Q 63.767 47.622 63.866 43.48 M 69.319 31.313 Q 69.531 30.638 69.136 29.911 Q 68.561 29.125 67.332 30.276 Q 67.073 30.334 66.379 31.2 Q 65.756 31.886 64.769 32.267 Q 63.854 32.253 62.826 32.256 Q 62.301 32.26 61.663 32.281 Q 60.695 32.095 59.249 31.151 Q 58.058 30.202 57.696 30.269 Q 56.832 30.336 56.832 31.276 Q 56.832 32.213 57.842 33.346 Q 59.495 35.081 62.935 35.081 Q 67.086 35.081 68.565 33.395 Q 69.319 32.21 69.319 31.313"
            fill="#000000"
            stroke-width="1"/>
    </g>
</svg>

<svg
    viewBox="0 0 100 125"
    width="100px"
    height="125px"
    x="2500px"
    y="0px">
    <g>
        <path
            d="M 82.8 28.3 Q 74.15 14.5 54 11.7 L 45.25 11.7 L 45.25 11.8 Q 27.3 14.25 18.3 28.15 Q 11.65 38.45 11.65 50.15 Q 11.65 62.75 18.1 72.25 Q 29.2 88.35 56.25 88.35 Q 65.55 88.35 73.1 85 Q 78.4 82.6 80 80.3 Q 85.2 73.2 87.2 62.7 Q 88.4 56.55 88.4 49.7 Q 88.4 37.4 82.8 28.3 M 54.55 16 Q 72.05 18.3 79.7 30.6 Q 84.75 38.8 84.75 49.85 Q 84.75 62.1 80.45 70.8 Q 73.7 84.55 57.9 83.5 L 46.7 83.5 Q 27.45 79.65 20.25 69.45 Q 15.3 62.5 15.3 50.3 Q 15.3 40.15 21.1 31 Q 28.95 18.55 44.7 16 L 54.55 16 M 32.924 33.825 Q 35.328 35.158 39.345 35.158 Q 41.409 35.12 42.534 33.454 Q 43.268 32.341 43.268 31.414 Q 43.268 29.656 42.069 30.59 Q 40.572 32.024 39.779 32.346 L 38.098 32.346 Q 36.978 32.098 36.107 31.075 Q 35.328 30.145 34.612 30.145 Q 33.771 30.145 33.272 30.734 Q 32.865 31.044 32.583 31.385 Q 30.646 31.319 30.684 32.086 Q 30.721 32.453 30.987 32.874 Q 31.5 33.446 32.924 33.825 M 65.71 43.264 Q 65.957 43.469 65.963 43.093 Q 66.216 42.717 66.208 41.248 Q 66.03 40.329 65.079 39.362 Q 64.128 38.394 63.771 38.916 Q 62.545 38.078 60.884 38.101 Q 51.272 37.915 42.342 38.814 Q 38.325 39.36 36.733 40.234 Q 36.453 40.843 36.453 41.799 Q 36.453 40.908 35.76 41.603 Q 35.047 42.297 35.066 43.742 Q 35.085 44.143 35.398 44.552 Q 35.56 44.62 36.073 43.938 Q 36.129 44.129 36.177 44.367 Q 37.497 44.815 41.257 45.101 Q 49.958 46.868 60.984 46.868 Q 65.577 46.849 65.71 43.264 M 69.759 31.733 Q 70.044 31.137 69.703 30.366 Q 69.207 29.585 68.002 30.545 Q 67.688 30.571 66.944 31.304 Q 66.261 31.881 65.209 32.203 Q 64.22 32.184 63.078 32.189 Q 62.371 32.194 61.511 32.222 Q 60.45 32.041 59.092 31.308 Q 58.027 30.516 57.695 30.606 Q 56.93 30.696 56.93 31.545 Q 56.93 32.443 57.857 33.449 Q 59.441 35.022 62.964 35.022 Q 67.653 35.022 69.108 33.532 Q 69.759 32.509 69.759 31.733"
            fill="#000000"
            stroke-width="1"/>
    </g>
</svg>

<svg
    viewBox="0 0 100 125"
    width="100px"
    height="125px"
    x="2600px"
    y="0px">
    <g>
        <path
            d="M 82.8 28.3 Q 74.15 14.5 54 11.7 L 45.25 11.7 L 45.25 11.8 Q 27.3 14.25 18.3 28.15 Q 11.65 38.45 11.65 50.15 Q 11.65 62.75 18.1 72.25 Q 29.2 88.35 56.25 88.35 Q 65.55 88.35 73.1 85 Q 78.4 82.6 80 80.3 Q 85.2 73.2 87.2 62.7 Q 88.4 56.55 88.4 49.7 Q 88.4 37.4 82.8 28.3 M 54.55 16 Q 72.05 18.3 79.7 30.6 Q 84.75 38.8 84.75 49.85 Q 84.75 62.1 80.45 70.8 Q 73.7 84.55 57.9 83.5 L 46.7 83.5 Q 27.45 79.65 20.25 69.45 Q 15.3 62.5 15.3 50.3 Q 15.3 40.15 21.1 31 Q 28.95 18.55 44.7 16 L 54.55 16 M 32.903 33.959 Q 35.604 35.062 39.64 35.062 Q 41.468 35.013 42.459 33.54 Q 43.118 32.55 43.118 31.714 Q 43.118 30.209 42.074 30.911 Q 40.776 32.003 39.999 32.26 L 38.323 32.26 Q 37.254 32.055 36.391 31.209 Q 35.604 30.44 34.869 30.44 Q 34.031 30.44 33.476 30.927 Q 32.997 31.183 32.62 31.465 Q 30.136 31.376 30.168 32.287 Q 30.199 32.686 30.505 33.086 Q 31.128 33.68 32.903 33.959 M 67.732 43.028 Q 68.049 43.474 68.097 43.163 Q 68.461 42.852 68.533 41.127 Q 68.386 40.108 67.288 39.014 Q 66.19 37.92 65.895 38.723 Q 64.915 38.142 63.576 38.256 Q 52.112 38.102 41.211 38.846 Q 36.383 39.306 34.505 40.064 Q 34.308 40.481 34.308 41.22 Q 34.308 40.068 33.415 40.928 Q 32.497 41.788 32.513 43.588 Q 32.528 44.049 32.917 44.5 Q 33.111 44.513 33.751 43.542 Q 33.807 43.691 33.846 43.88 Q 35.517 44.337 40.313 44.564 Q 51.033 46.026 63.676 46.026 Q 67.561 46.002 67.732 43.028 M 70.242 32.195 Q 70.607 31.684 70.325 30.865 Q 69.915 30.089 68.737 30.84 Q 68.363 30.831 67.563 31.418 Q 66.815 31.876 65.692 32.133 Q 64.621 32.109 63.354 32.115 Q 62.447 32.121 61.345 32.158 Q 60.182 31.982 58.921 31.479 Q 57.992 30.859 57.694 30.974 Q 57.037 31.09 57.037 31.84 Q 57.037 32.695 57.873 33.561 Q 59.382 34.958 62.996 34.958 Q 68.275 34.958 69.703 33.682 Q 70.242 32.836 70.242 32.195"
            fill="#000000"
            stroke-width="1"/>
    </g>
</svg>

<svg
    viewBox="0 0 100 125"
    width="100px"
    height="125px"
    x="2700px"
    y="0px">
    <g>
        <path
            d="M 82.8 28.3 Q 74.15 14.5 54 11.7 L 45.25 11.7 L 45.25 11.8 Q 27.3 14.25 18.3 28.15 Q 11.65 38.45 11.65 50.15 Q 11.65 62.75 18.1 72.25 Q 29.2 88.35 56.25 88.35 Q 65.55 88.35 73.1 85 Q 78.4 82.6 80 80.3 Q 85.2 73.2 87.2 62.7 Q 88.4 56.55 88.4 49.7 Q 88.4 37.4 82.8 28.3 M 54.55 16 Q 72.05 18.3 79.7 30.6 Q 84.75 38.8 84.75 49.85 Q 84.75 62.1 80.45 70.8 Q 73.7 84.55 57.9 83.5 L 46.7 83.5 Q 27.45 79.65 20.25 69.45 Q 15.3 62.5 15.3 50.3 Q 15.3 40.15 21.1 31 Q 28.95 18.55 44.7 16 L 54.55 16 M 32.879 34.104 Q 35.902 34.957 39.958 34.957 Q 41.532 34.897 42.378 33.632 Q 42.956 32.776 42.956 32.038 Q 42.956 30.805 42.08 31.259 Q 40.996 31.979 40.236 32.168 L 38.566 32.168 Q 37.552 32.009 36.698 31.354 Q 35.902 30.758 35.147 30.758 Q 34.312 30.758 33.696 31.135 Q 33.139 31.334 32.661 31.552 Q 29.586 31.438 29.61 32.504 Q 29.635 32.937 29.985 33.315 Q 30.727 33.933 32.879 34.104 M 69.915 42.774 Q 70.307 43.48 70.4 43.239 Q 70.886 42.999 71.043 40.997 Q 70.929 39.869 69.672 38.638 Q 68.416 37.407 68.188 38.515 Q 67.474 38.212 66.483 38.424 Q 53.018 38.305 39.989 38.881 Q 34.287 39.249 32.1 39.88 Q 31.992 40.09 31.992 40.594 Q 31.992 39.161 30.883 40.199 Q 29.743 41.237 29.755 43.421 Q 29.767 43.947 30.238 44.444 Q 30.467 44.397 31.245 43.115 Q 31.299 43.219 31.33 43.354 Q 33.38 43.82 39.294 43.985 Q 52.194 45.117 66.583 45.117 Q 69.704 45.087 69.915 42.774 M 70.763 32.693 Q 71.215 32.275 70.997 31.404 Q 70.679 30.634 69.53 31.158 Q 69.091 31.112 68.232 31.541 Q 67.413 31.87 66.213 32.058 Q 65.053 32.028 63.652 32.036 Q 62.53 32.043 61.165 32.088 Q 59.893 31.918 58.735 31.665 Q 57.954 31.229 57.692 31.372 Q 57.153 31.516 57.153 32.158 Q 57.153 32.967 57.89 33.683 Q 59.318 34.888 63.031 34.888 Q 68.947 34.888 70.346 33.844 Q 70.763 33.189 70.763 32.693"
            fill="#000000"
            stroke-width="1"/>
    </g>
</svg>

<svg
    viewBox="0 0 100 125"
    width="100px"
    height="125px"
    x="2800px"
    y="0px">
    <g>
        <path
            d="M 82.8 28.3 Q 74.15 14.5 54 11.7 L 45.25 11.7 L 45.25 11.8 Q 27.3 14.25 18.3 28.15 Q 11.65 38.45 11.65 50.15 Q 11.65 62.75 18.1 72.25 Q 29.2 88.35 56.25 88.35 Q 65.55 88.35 73.1 85 Q 78.4 82.6 80 80.3 Q 85.2 73.2 87.2 62.7 Q 88.4 56.55 88.4 49.7 Q 88.4 37.4 82.8 28.3 M 54.55 16 Q 72.05 18.3 79.7 30.6 Q 84.75 38.8 84.75 49.85 Q 84.75 62.1 80.45 70.8 Q 73.7 84.55 57.9 83.5 L 46.7 83.5 Q 27.45 79.65 20.25 69.45 Q 15.3 62.5 15.3 50.3 Q 15.3 40.15 21.1 31 Q 28.95 18.55 44.7 16 L 54.55 16 M 32.855 34.258 Q 36.221 34.846 40.299 34.846 Q 41.6 34.773 42.291 33.731 Q 42.783 33.017 42.783 32.385 Q 42.783 31.443 42.086 31.63 Q 41.231 31.955 40.49 32.069 L 38.826 32.069 Q 37.871 31.959 37.026 31.508 Q 36.221 31.099 35.444 31.099 Q 34.612 31.099 33.931 31.358 Q 33.29 31.495 32.704 31.645 Q 28.998 31.504 29.015 32.737 Q 29.031 33.206 29.428 33.56 Q 30.297 34.203 32.855 34.258 M 72.25 42.501 Q 72.722 43.486 72.865 43.321 Q 73.479 43.155 73.728 40.857 Q 73.649 39.614 72.223 38.236 Q 70.797 36.859 70.64 38.292 Q 70.212 38.286 69.592 38.604 Q 53.987 38.522 38.683 38.918 Q 32.045 39.187 29.526 39.684 Q 29.515 39.672 29.515 39.925 Q 29.515 38.19 28.174 39.419 Q 26.797 40.649 26.806 43.243 Q 26.814 43.839 27.372 44.383 Q 27.639 44.273 28.564 42.658 Q 28.617 42.714 28.638 42.791 Q 31.093 43.268 38.204 43.366 Q 53.436 44.145 69.692 44.145 Q 71.995 44.108 72.25 42.501 M 71.32 33.225 Q 71.866 32.907 71.715 31.979 Q 71.497 31.216 70.378 31.499 Q 69.87 31.412 68.947 31.672 Q 68.052 31.864 66.77 31.978 Q 65.516 31.941 63.971 31.95 Q 62.618 31.959 60.974 32.014 Q 59.583 31.85 58.537 31.863 Q 57.914 31.626 57.691 31.798 Q 57.277 31.971 57.277 32.499 Q 57.277 33.258 57.909 33.813 Q 59.25 34.814 63.068 34.814 Q 69.665 34.814 71.034 34.017 Q 71.32 33.567 71.32 33.225"
            fill="#000000"
            stroke-width="1"/>
    </g>
</svg>

<svg
    viewBox="0 0 100 125"
    width="100px"
    height="125px"
    x="2900px"
    y="0px">
    <g>
        <path
            d="M 82.8 28.3 Q 74.15 14.5 54 11.7 L 45.25 11.7 L 45.25 11.8 Q 27.3 14.25 18.3 28.15 Q 11.65 38.45 11.65 50.15 Q 11.65 62.75 18.1 72.25 Q 29.2 88.35 56.25 88.35 Q 65.55 88.35 73.1 85 Q 78.4 82.6 80 80.3 Q 85.2 73.2 87.2 62.7 Q 88.4 56.55 88.4 49.7 Q 88.4 37.4 82.8 28.3 M 54.55 16 Q 72.05 18.3 79.7 30.6 Q 84.75 38.8 84.75 49.85 Q 84.75 62.1 80.45 70.8 Q 73.7 84.55 57.9 83.5 L 46.7 83.5 Q 27.45 79.65 20.25 69.45 Q 15.3 62.5 15.3 50.3 Q 15.3 40.15 21.1 31 Q 28.95 18.55 44.7 16 L 54.55 16 M 32.828 34.423 Q 36.561 34.727 40.661 34.727 Q 41.672 34.641 42.199 33.837 Q 42.598 33.274 42.598 32.754 Q 42.598 32.122 42.093 32.026 Q 41.481 31.928 40.76 31.963 L 39.103 31.963 Q 38.211 31.907 37.375 31.673 Q 36.561 31.461 35.761 31.461 Q 34.932 31.461 34.181 31.596 Q 33.452 31.666 32.751 31.744 Q 28.371 31.575 28.38 32.985 Q 28.389 33.493 28.835 33.82 Q 29.84 34.491 32.828 34.423 M 74.736 42.211 Q 75.294 43.493 75.488 43.407 Q 76.241 43.322 76.587 40.709 Q 76.546 39.341 74.939 37.808 Q 73.333 36.275 73.252 38.054 Q 73.127 38.365 72.903 38.795 Q 55.019 38.753 37.291 38.958 Q 29.658 39.121 26.786 39.474 Q 26.877 39.227 26.877 39.213 Q 26.877 37.157 25.29 38.589 Q 23.661 40.022 23.665 43.053 Q 23.67 43.724 24.32 44.319 Q 24.627 44.141 25.709 42.171 Q 25.761 42.176 25.771 42.192 Q 28.659 42.68 37.044 42.707 Q 54.758 43.109 73.003 43.109 Q 74.435 43.067 74.736 42.211 M 71.914 33.792 Q 72.558 33.579 72.48 32.593 Q 72.367 31.836 71.282 31.861 Q 70.699 31.732 69.709 31.812 Q 68.733 31.857 67.364 31.892 Q 66.009 31.849 64.311 31.86 Q 62.712 31.87 60.769 31.935 Q 59.253 31.778 58.326 32.074 Q 57.871 32.048 57.689 32.252 Q 57.409 32.456 57.409 32.861 Q 57.409 33.568 57.929 33.952 Q 59.178 34.735 63.108 34.735 Q 70.43 34.735 71.766 34.202 Q 71.914 33.969 71.914 33.792"
            fill="#000000"
            stroke-width="1"/>
    </g>
</svg>

<svg
    viewBox="0 0 100 125"
    width="100px"
    height="125px"
    x="3000px"
    y="0px">
    <g>
        <path
            d="M 82.8 28.3 Q 74.15 14.5 54 11.7 L 45.25 11.7 L 45.25 11.8 Q 27.3 14.25 18.3 28.15 Q 11.65 38.45 11.65 50.15 Q 11.65 62.75 18.1 72.25 Q 29.2 88.35 56.25 88.35 Q 65.55 88.35 73.1 85 Q 78.4 82.6 80 80.3 Q 85.2 73.2 87.2 62.7 Q 88.4 56.55 88.4 49.7 Q 88.4 37.4 82.8 28.3 M 54.55 16 Q 72.05 18.3 79.7 30.6 Q 84.75 38.8 84.75 49.85 Q 84.75 62.1 80.45 70.8 Q 73.7 84.55 57.9 83.5 L 46.7 83.5 Q 27.45 79.65 20.25 69.45 Q 15.3 62.5 15.3 50.3 Q 15.3 40.15 21.1 31 Q 28.95 18.55 44.7 16 L 54.55 16 M 32.8 34.6 Q 36.925 34.6 41.05 34.6 Q 41.75 34.5 42.1 33.95 Q 42.4 33.55 42.4 33.15 Q 42.4 32.85 42.1 32.45 Q 41.75 31.9 41.05 31.85 L 39.4 31.85 Q 38.575 31.85 37.75 31.85 Q 36.925 31.85 36.1 31.85 Q 35.275 31.85 34.45 31.85 Q 33.625 31.85 32.8 31.85 Q 27.7 31.65 27.7 33.25 Q 27.7 33.8 28.2 34.1 Q 29.35 34.8 32.8 34.6 M 77.4 41.9 Q 78.05 43.5 78.3 43.5 Q 79.2 43.5 79.65 40.55 Q 79.65 39.05 77.85 37.35 Q 76.05 35.65 76.05 37.8 Q 76.25 38.45 76.45 39 Q 56.125 39 35.8 39 Q 27.1 39.05 23.85 39.25 Q 24.05 38.75 24.05 38.45 Q 24.05 36.05 22.2 37.7 Q 20.3 39.35 20.3 42.85 Q 20.3 43.6 21.05 44.25 Q 21.4 44 22.65 41.65 Q 22.7 41.6 22.7 41.55 Q 26.05 42.05 35.8 42 Q 56.175 42 76.55 42 Q 77.05 41.95 77.4 41.9 M 72.55 34.4 Q 73.3 34.3 73.3 33.25 Q 73.3 32.5 72.25 32.25 Q 71.588 32.075 70.525 31.962 Q 69.463 31.85 68 31.8 Q 66.537 31.75 64.675 31.762 Q 62.813 31.775 60.55 31.85 Q 58.9 31.7 58.1 32.3 Q 57.825 32.5 57.688 32.737 Q 57.55 32.975 57.55 33.25 Q 57.55 33.9 57.95 34.1 Q 59.1 34.65 63.15 34.65 Q 71.25 34.65 72.55 34.4 Q 72.55 34.4 72.55 34.4"
            fill="#000000"
            stroke-width="1"/>
    </g>
</svg>

</svg>
