<svg xmlns="http://www.w3.org/2000/svg" xmlns:xlink="http://www.w3.org/1999/xlink" version="1.0" x="0px" y="0px" viewBox="0 0 50 62.5" enable-background="new 0 0 50 50" xml:space="preserve"><g><path d="M29,16.8c6.9,0,9.8-4.9,10.2-9.5c0-0.4,0-0.7,0-0.7c0-0.7-0.6-1.2-1.2-1.2c-0.3,0-0.6,0-0.9,0C32.8,5.6,29.7,8,28.4,12   c-0.6,1.9-0.6,3.5-0.6,3.5c0,0.3,0.1,0.7,0.4,0.9C28.3,16.6,28.7,16.8,29,16.8z M30.8,12.8c0.9-2.9,2.9-4.5,5.8-4.9   c-0.4,2.2-1.7,5.7-6.2,6.3C30.5,13.8,30.6,13.3,30.8,12.8z"/><path d="M19.7,44.7c1.1,0,2-0.3,2.9-0.5c0.8-0.2,1.5-0.5,2.5-0.5c1,0,1.7,0.2,2.5,0.5c0.9,0.3,1.7,0.5,2.9,0.5   c4.7,0,8.7-5.6,9.3-13.1c0.4-4.7-0.6-8.4-2.7-10.7c-1.6-1.8-3.9-2.7-6.7-2.7c-1.4,0-2.8,0.3-4.1,0.8c0-0.6-0.2-1.8-0.6-3.1   c-1.3-4-4.4-6.4-8.7-6.7c-0.3,0-0.6,0-0.9,0c-0.7,0-1.2,0.6-1.2,1.2s0.6,1.2,1.2,1.2c0.3,0,0.5,0,0.7,0c3.3,0.2,5.5,1.9,6.5,5   c0.3,0.9,0.4,1.8,0.5,2.3c-1.3-0.5-2.7-0.8-4.1-0.8c-2.8,0-5,0.9-6.7,2.7c-2.1,2.3-3,6-2.7,10.7C10.9,39.1,14.9,44.7,19.7,44.7z    M14.8,22.6c1.1-1.2,2.8-1.9,4.8-1.9c1.6,0,3.3,0.5,4.7,1.4c0.4,0.3,0.9,0.3,1.3,0c1.4-0.9,3-1.4,4.7-1.4c2.1,0,3.7,0.6,4.8,1.9   c1.6,1.8,2.3,4.8,2,8.8c-0.5,6.1-3.5,10.8-6.8,10.8c-0.8,0-1.4-0.2-2.1-0.4c-0.9-0.3-1.9-0.6-3.2-0.6c-1.3,0-2.3,0.3-3.2,0.6   c-0.7,0.2-1.4,0.4-2.1,0.4c-3.4,0-6.4-4.8-6.8-10.8C12.5,27.4,13.2,24.4,14.8,22.6z"/></g></svg>