<svg xmlns="http://www.w3.org/2000/svg" xmlns:xlink="http://www.w3.org/1999/xlink" version="1.1" x="0px" y="0px" viewBox="0 0 100 125" enable-background="new 0 0 100 100" xml:space="preserve"><path d="M48.928,10.343c-21.367,0-38.75,17.384-38.75,38.751c0,7.399,2.093,14.577,6.058,20.795l-6.277,16.49  c-0.156,0.409-0.05,0.87,0.268,1.17c0.205,0.194,0.472,0.296,0.742,0.296c0.149,0,0.3-0.03,0.442-0.094l15.361-6.875  c6.524,4.562,14.172,6.969,22.157,6.969c21.368,0,38.751-17.384,38.751-38.751S70.296,10.343,48.928,10.343z M48.928,82.127  c-6.983,0-13.664-2.16-19.319-6.248c-0.796-0.574-1.735-0.878-2.715-0.878c-0.658,0-1.295,0.136-1.893,0.404l-5.721,2.561  l2.494-6.556c0.531-1.389,0.359-2.957-0.458-4.196c-3.544-5.389-5.418-11.654-5.418-18.12c0-8.808,3.439-17.099,9.686-23.346  c6.246-6.247,14.538-9.687,23.346-9.687c18.215,0,33.033,14.819,33.033,33.033C81.961,67.309,67.143,82.127,48.928,82.127z"/><path d="M27.967,38.327h4.73l8.571,15.055V38.327h4.204v21.592h-4.511l-8.79-15.321v15.321h-4.204V38.327z"/><path d="M66.332,58c-1.631,1.68-3.99,2.52-7.076,2.52s-5.443-0.84-7.074-2.52c-2.188-2.061-3.282-5.029-3.282-8.907  c0-3.955,1.094-6.924,3.282-8.906c1.631-1.68,3.988-2.52,7.074-2.52s5.445,0.84,7.076,2.52c2.178,1.982,3.266,4.951,3.266,8.906  C69.598,52.971,68.51,55.939,66.332,58z M63.512,54.719c1.049-1.318,1.574-3.193,1.574-5.625c0-2.422-0.525-4.294-1.574-5.618  c-1.051-1.323-2.469-1.985-4.256-1.985s-3.213,0.659-4.277,1.978s-1.596,3.193-1.596,5.625c0,2.432,0.531,4.307,1.596,5.625  s2.49,1.978,4.277,1.978S62.461,56.037,63.512,54.719z"/></svg>