<svg xmlns="http://www.w3.org/2000/svg" xmlns:xlink="http://www.w3.org/1999/xlink" version="1.1" x="0px" y="0px" viewBox="0 0 100 125" enable-background="new 0 0 100 100" xml:space="preserve"><path d="M47.051,10.489C25.684,10.489,8.3,27.873,8.3,49.24c0,7.399,2.093,14.577,6.058,20.795l-6.277,16.49  c-0.156,0.409-0.05,0.87,0.268,1.17c0.205,0.194,0.472,0.296,0.742,0.296c0.149,0,0.3-0.03,0.442-0.094l15.361-6.875  c6.524,4.562,14.172,6.969,22.157,6.969c21.368,0,38.751-17.384,38.751-38.751S68.419,10.489,47.051,10.489z M47.051,82.273  c-6.983,0-13.664-2.16-19.319-6.248c-0.796-0.574-1.735-0.878-2.715-0.878c-0.658,0-1.295,0.136-1.893,0.404l-5.721,2.561  l2.494-6.556c0.531-1.389,0.359-2.957-0.458-4.196c-3.544-5.389-5.418-11.654-5.418-18.12c0-8.808,3.439-17.099,9.686-23.346  c6.246-6.247,14.538-9.687,23.346-9.687c18.215,0,33.033,14.819,33.033,33.033C80.084,67.455,65.266,82.273,47.051,82.273z"/><path d="M32.554,51.584v0.498c0.037,1.67,0.208,2.844,0.516,3.522c0.307,0.679,0.965,1.019,1.974,1.019c1,0,1.661-0.371,1.981-1.113  c0.193-0.439,0.289-1.182,0.289-2.227V38.18h4.512v15.03c0,1.836-0.311,3.291-0.931,4.365c-1.05,1.816-2.946,2.725-5.686,2.725  c-2.741,0-4.579-0.735-5.515-2.205c-0.936-1.47-1.403-3.474-1.403-6.013v-0.498H32.554z"/><path d="M52.776,38.18h5.104l7.639,21.592h-4.893l-1.424-4.438h-7.951l-1.464,4.438h-4.719L52.776,38.18z M52.479,51.613h5.53  l-2.729-8.497L52.479,51.613z"/></svg>