<svg xmlns="http://www.w3.org/2000/svg" xmlns:xlink="http://www.w3.org/1999/xlink" version="1.1" x="0px" y="0px" viewBox="0 0 100 125" enable-background="new 0 0 100 100" xml:space="preserve"><path d="M48.468,10.405c-21.367,0-38.75,17.384-38.75,38.751c0,7.399,2.093,14.578,6.058,20.795l-6.277,16.49  c-0.156,0.409-0.05,0.87,0.268,1.17c0.205,0.194,0.472,0.296,0.742,0.296c0.149,0,0.3-0.03,0.442-0.094l15.361-6.875  c6.524,4.562,14.172,6.969,22.157,6.969c21.368,0,38.751-17.384,38.751-38.751C87.219,27.789,69.836,10.405,48.468,10.405z   M48.468,82.189c-6.983,0-13.664-2.16-19.319-6.248c-0.796-0.574-1.735-0.878-2.715-0.878c-0.658,0-1.295,0.136-1.893,0.404  l-5.721,2.561l2.494-6.556c0.531-1.389,0.359-2.957-0.458-4.196c-3.544-5.389-5.418-11.655-5.418-18.121  c0-8.808,3.439-17.099,9.686-23.346c6.246-6.247,14.538-9.687,23.346-9.687c18.215,0,33.033,14.819,33.033,33.033  C81.501,67.371,66.683,82.189,48.468,82.189z"/><path d="M30.563,40.521c1.739-1.777,3.951-2.666,6.637-2.666c3.594,0,6.222,1.191,7.884,3.574c0.917,1.338,1.41,2.681,1.478,4.028  H42.05c-0.287-1.035-0.655-1.816-1.105-2.344c-0.804-0.938-1.995-1.406-3.573-1.406c-1.607,0-2.875,0.662-3.803,1.985  c-0.928,1.323-1.392,3.196-1.392,5.618s0.49,4.236,1.469,5.442s2.223,1.809,3.732,1.809c1.548,0,2.728-0.518,3.54-1.553  c0.449-0.557,0.821-1.392,1.118-2.505h4.482c-0.387,2.354-1.375,4.268-2.963,5.742c-1.589,1.475-3.625,2.212-6.108,2.212  c-3.072,0-5.488-0.996-7.246-2.988c-1.758-2.002-2.637-4.746-2.637-8.232C27.563,45.467,28.563,42.562,30.563,40.521z"/><path d="M56.339,38.265h5.105l7.639,21.592H64.19l-1.424-4.438h-7.951l-1.464,4.438h-4.719L56.339,38.265z M56.042,51.697h5.531  l-2.729-8.496L56.042,51.697z"/></svg>