<svg xmlns="http://www.w3.org/2000/svg" xmlns:xlink="http://www.w3.org/1999/xlink" version="1.1" x="0px" y="0px" viewBox="0 0 100 125" enable-background="new 0 0 100 100" xml:space="preserve"><path d="M44.995,10c-21.367,0-38.75,17.384-38.75,38.751c0,7.4,2.093,14.578,6.058,20.795l-6.277,16.49  c-0.156,0.409-0.05,0.87,0.268,1.17c0.205,0.194,0.472,0.296,0.742,0.296c0.149,0,0.3-0.03,0.442-0.094l15.361-6.875  c6.524,4.562,14.172,6.969,22.157,6.969c21.369,0,38.751-17.384,38.751-38.751C83.746,27.384,66.363,10,44.995,10z M44.995,81.785  c-6.983,0-13.664-2.16-19.319-6.248c-0.796-0.574-1.735-0.878-2.715-0.878c-0.658,0-1.295,0.136-1.893,0.404l-5.721,2.561  l2.494-6.556c0.531-1.389,0.359-2.957-0.458-4.196c-3.544-5.389-5.418-11.654-5.418-18.121c0-8.808,3.439-17.099,9.686-23.346  c6.246-6.247,14.538-9.687,23.346-9.687c18.215,0,33.034,14.819,33.034,33.033C78.028,66.967,63.21,81.785,44.995,81.785z"/><path d="M31.944,59.548V37.955h4.482v8.232h8.394v-8.232h4.482v21.593h-4.482v-9.64h-8.394v9.64H31.944z"/><path d="M57.755,59.548h-4.482V37.955h4.482V59.548z"/></svg>