<svg xmlns="http://www.w3.org/2000/svg" xmlns:xlink="http://www.w3.org/1999/xlink" version="1.1" x="0px" y="0px" viewBox="0 0 20 25" style="enable-background:new 0 0 20 20;" xml:space="preserve"><g><path d="M19,13h-1.1c-0.4-1.9-2.1-3.4-4.1-3.5c-0.6-1.8-2.3-3-4.2-3c-2,0-3.7,1.3-4.3,3.2c-1.5,0.5-2.7,1.7-3.1,3.3H1   c-0.6,0-1,0.4-1,1s0.4,1,1,1h0.3l1.7,4.4C3.2,19.8,3.6,20,4,20h12c0.4,0,0.8-0.2,0.9-0.6l1.7-4.4H19c0.6,0,1-0.4,1-1S19.6,13,19,13   z M6.2,11.5C6.6,11.5,7,11.1,7,10.7c0.2-1.2,1.2-2.2,2.5-2.2c1.3,0,2.3,0.9,2.5,2.2c0.1,0.6,0.6,1,1.2,0.8c0.8-0.2,2.1,0.4,2.6,1.5   H4.2C4.6,12.2,5.3,11.6,6.2,11.5z M15.3,18H4.7l-1.2-3h13L15.3,18z"/><path d="M4,7c0.6,0,1-0.4,1-1V4c0-0.6-0.4-1-1-1S3,3.4,3,4v2C3,6.6,3.4,7,4,7z"/><path d="M16,7c0.6,0,1-0.4,1-1V4c0-0.6-0.4-1-1-1s-1,0.4-1,1v2C15,6.6,15.4,7,16,7z"/><path d="M10,4c0.6,0,1-0.4,1-1V1c0-0.6-0.4-1-1-1S9,0.4,9,1v2C9,3.6,9.4,4,10,4z"/></g></svg>