<svg xmlns="http://www.w3.org/2000/svg" xmlns:xlink="http://www.w3.org/1999/xlink" version="1.1" x="0px" y="0px" viewBox="0 0 20 25" style="enable-background:new 0 0 20 20;" xml:space="preserve"><g><path d="M14.4,0.4C14,0,13.4,0,13,0.4L0.3,12.7c-0.6,0.6-0.2,1.7,0.7,1.7h5v2.7c0,0.6,0.4,1,1,1s1-0.4,1-1v-2.7h2v4.5   c0,0.6,0.4,1,1,1s1-0.4,1-1v-4.5h7c0.6,0,1-0.4,1-1C20,8.5,18,3.9,14.4,0.4z M3.5,12.4l10.2-9.9c2.5,2.8,4,6.2,4.3,9.9H3.5z"/><path d="M10,8.6c0,1.7,1.3,3,3,3s3-1.3,3-3s-1.3-3-3-3S10,6.9,10,8.6z M14,8.6c0,0.6-0.4,1-1,1s-1-0.4-1-1s0.4-1,1-1S14,8.1,14,8.6   z"/></g></svg>